<?xml version="1.0" encoding="utf-8"?>
<!-- Generator: Adobe Illustrator 23.0.2, SVG Export Plug-In . SVG Version: 6.00 Build 0)  -->
<svg version="1.1" id="Layer_1" xmlns="http://www.w3.org/2000/svg" xmlns:xlink="http://www.w3.org/1999/xlink" x="0px" y="0px"
	 viewBox="0 0 1920 1080" style="enable-background:new 0 0 1920 1080;" xml:space="preserve">
<style type="text/css">
	.st0{fill:#FFFFFF;}
</style>
<g>
	<g>
		<g>
			<path class="st0" d="M872.99,331.69c-1.86,2.13-3.66,4.02-4.52,6.13c0.19,0.44,2.48-2.25,1.02,0.23
				c-0.35-0.89-1.41,1.08-1.76,0.99c-0.84,3.25-2.9,3.54-3.5,5.83c0.06-0.6-1.27,0.66-2.21,1.43c0.07,0.11,0.15,0.23,0.19,0.48
				l-0.21-0.46c0,0,0.01-0.01,0.02-0.02c-0.67-0.94-2.41,2.47-0.95-2.09c-1.44,4.74-5.33,6.28-5.2,10.7l0.97-0.76l-1.6,1.71
				l-0.8,0.85c-0.12,0.12-0.25,0.27-0.38,0.4c0.36-0.38,0.85-0.88,1.51-1.46c-0.58,0.57-1.23,1.24-1.76,1.72
				c-0.47,0.44-0.76,0.72-0.97,1.09c-0.07,0.2-0.18,0.41-0.37,0.7c-0.19,0.34-0.47,0.9-0.86,1.53c-0.1-0.56-0.11-1.4-0.12-1.96
				c0.01-0.3-0.04-0.63-0.01-0.92c0.13-0.25,0.25-0.5,0.33-0.74c-0.29,0.16-0.55,0.36-0.77,0.58c-0.15,0.25-0.14,0.57-0.17,0.87
				c-0.03,0.59,0.06,1.28,0.18,1.96c0.25,1.36,0.66,2.77,0.56,4.15c-0.93-0.22-0.05-2.9-1.26-2.21c-0.35,1.94,0.16,3.68,0.26,5.52
				l-0.5-0.31c-1.73,4.71,2.47,2.17,0.29,5.52c0.34-0.08,0.64,0.41,0.99,0.22c0.15-0.27,0.29-0.49,0.37-0.5
				c-0.13,0.29-0.25,0.44-0.37,0.5c-0.49,0.89-1.3,2.64-1.86,2.46c0.03,0.04,0.06,0.09,0.08,0.12c0.24,0.83-0.47,0.18-0.59,0.64
				c0,0.03,0,0.05,0.01,0.08c0.12,0.25,0.27,0.5,0.44,0.75l-0.26-0.02c-0.17,0.1,0.13,0.2,0.2,0.24c-0.12-0.03-0.17,0.03-0.19,0.11
				c0.07,0.28,0.14,0.52,0.23,0.75l0.23-0.04c0.1,0.09,0.16,0.17,0.21,0.24c0.69-1.07,0.46-1.44,1.48-1.83l-0.01,6.85
				c-0.07,0.76-0.51-0.62-0.43-1.57c-0.44,0.89-0.73,1.8-0.97,2.71c0.14,0.99,0.22,2.04-0.24,2.7c0.04-0.01,0.09-0.01,0.13-0.02
				c0.03-0.22,0.06-0.39,0.11-0.37c0.02,0.15,0.02,0.23,0.03,0.35c0.19-0.02,0.39-0.05,0.6-0.07c-0.03-0.14,0.05-0.26,0.23-0.46
				c-0.01,0.11,0.09,0.26,0.14,0.41c0.4-0.05,0.8-0.09,1.18-0.13c0.91-0.12,1.81-0.16,2.73-0.19l1.39-0.03l0.35,0
				c0.11,0.01,0.14,0.16,0.22,0.23l0.39,0.55c0.52,0.74,1.05,1.49,1.53,2.31l0.7,1.23c0.23,0.43,0.45,0.85,0.57,1.12
				c0.28,0.63,0.52,1.28,0.72,1.97c0.1,0.35,0.18,0.68,0.27,1.07c0.13,0.44,0.24,0.89,0.32,1.32c0.26-1.56,1.3,0.28,2.61,1.18
				c0.12,0.99-0.02,2.25-0.01,3.38c-0.01,0.87-0.03,1.78-0.04,2.69c-0.03,1.81-0.1,3.59-0.43,4.95l-0.76-0.86
				c0.23,1.82,0.53,3.09,0.74,5.36l0.07,0.77c-0.05,0.24-0.12,0.48-0.18,0.72c-0.13,0.47-0.26,0.94-0.38,1.4
				c-0.17,0.69-0.33,1.36-0.48,2.01c-0.26,1.06-0.55,2.06-0.85,3.01c0.25,0.61,0.23,1.13-0.5,1.42c-0.28,0.75-0.59,1.47-0.94,2.17
				c0.02,0.06,0.04,0.12,0.07,0.18c-0.05-0.04-0.08-0.07-0.11-0.1c-0.03,0.07-0.06,0.14-0.1,0.21c0.2,0.28-0.65-0.24-0.88-0.91
				c-0.03-0.01-0.06-0.01-0.09-0.02c-0.02,0.16-0.04,0.31-0.07,0.47c1.66,1.4,1.24,2.51,1.57,3.65l-0.71,1.26l0.01,0.13
				c-0.95-0.57-2.15-0.63-3.73-1.21c-0.05,0.03-0.1,0.07-0.15,0.1c-0.05,0.03-0.09,0.06-0.14,0.09c0.35,0.39,0.82,0.89,1.29,1.38
				c0.1,0.02,0.21,0.05,0.35,0.09c-0.01,0.04,0.03,0.09,0.04,0.14c0.07-0.22,0.08-0.36-0.04-0.38c1.23,0.4,0.79,0.62,2.01,1.49
				c-0.22,0.25-0.17,1.14-1.14,0.52c-0.13,0.15-0.33,0.16-0.63,0.2c0.12,0.24,0.15,0.43-0.05,0.48l-0.09-0.15
				c-0.19-0.11-0.31-0.16-0.44-0.22c-0.35,0.05-0.36,0.41-0.21,0.88c0.39-0.15,0.94-0.29,1.8-0.4c-0.3,0.56-0.38,0.89-0.18,1.1
				c0.1,0.11,0.26,0.19,0.51,0.26c0.12,0.04,0.26,0.05,0.41,0.11c0.11,0.19,0.23,0.4,0.36,0.63c0.58-0.18,1.21-0.31,1.89-0.39
				c0.09,0.46-0.59,1.57-1.35,1.5c0.32-0.05,0.68,0.02,1.08,0.18c0.2,0.08,0.4,0.18,0.61,0.31c0.25,0.17,0.51,0.36,0.78,0.57
				c0.45,0.37,0.93,0.76,1.42,1.16l0.54,0.46l0.93,0.89c0.5,0.48,1,0.95,1.47,1.4c0.24,0.21,0.47,0.42,0.69,0.62
				c0.11,0.1,0.25,0.19,0.33,0.3l0.07,0.39c0.19,1.03,0.49,1.87,1,2.34c-0.51,0.6-2.43-0.46-3.2,0.46c-0.6,2.88,0.22,4.19,1,5.82
				c1.05,0.03,1.01,0.92,0.88,2.07c0.13,0.52,0.22,1.21,0.22,1.87c-0.02,0.33,0.01,0.69-0.1,1.03c-0.16,0.33-0.34,0.67-0.56,1
				c0.35-1.21,0.26-2.71,0.44-3.9c-0.21-0.71-0.54-1.38-0.88-2.07l-0.01-0.01c-0.6,0.7-0.9,1.75-1.08,2.85l0.41,0.34l-0.48,0.1
				c-0.01,0.07-0.02,0.14-0.03,0.21c0,0.04-0.01,0.07-0.01,0.11c0.26,0.18,0.51,0.33,0.66,0.55l-0.13,0.75
				c0.05,0.18,0.03,0.38-0.16,0.64c-0.57,0.59-0.95,1.27-1.22,1.99c0.49,0.21,1.22,0.42,1.28,2.1l1-1.42
				c0.34-0.49,0.63-0.86,1.08-1.66l-1.62,5.97l-0.17-2.55c-0.83,1.14-1.06,2.52-1.22,3.98c-0.08,0.73-0.14,1.48-0.24,2.24
				c-0.07,0.42-0.09,0.67-0.24,1.22c-0.13,0.55-0.34,1.09-0.63,1.59c0.7-0.41,1.35-1.02,1.94-1.51c-0.07,0.37-0.19,0.92-0.31,1.37
				c-0.15,0.44-0.36,0.98-0.41,1.2l-0.49,1.77c-2.18-0.76-2.55,3.13-3.89,1.34c0.01,0.08,0.02,0.16,0.05,0.24
				c-0.21-0.19-0.2-0.34-0.24-0.52c-0.06-0.09-0.11-0.17-0.17-0.28c0,0-0.01,0-0.01,0c-0.18,0.24-0.34,0.47-0.51,0.71
				c0.49,0.66,0.67,1.26,0.71,1.82c0.03,0.39,0,0.76-0.02,1.13l-0.01,0.28l-0.08,0.43c-0.05,0.29-0.09,0.58-0.12,0.87
				c-0.73-0.25-1.7-0.04-2.77-0.08c-0.25,0.54-0.55,1.03-0.92,1.46c0.05,0.1,0.1,0.21,0.15,0.31c0.12,0.02,0.26,0.06,0.42,0.1
				c-0.05,0.06-0.03,0.12-0.05,0.18c0.28-0.29,0.36-0.49,0.22-0.5c1.28,0.23,0.7,0.74,1.79,1.78c-0.53,0.41-1.43,1.78-2.19,0.92
				c-0.2,0.14-0.42,0.1-0.75,0.08c0.02,0.28-0.02,0.49-0.25,0.49l-0.03-0.18c-0.15-0.15-0.26-0.24-0.37-0.32
				c-1.01-0.04-0.48,2.49-0.33,3.76c-0.62-1.8-1.32-1.71-2.09-2.55c-1.12,1.41-2.3,2.8-3.8,4.06c0.37-0.42-0.09-0.61-0.15-0.98
				c-0.53,0.28-0.98,0.59-1.4,0.9c0.13,0.4,0.31,0.89,0.53,1.56l-0.84-1.32c-0.04,0.72-0.08,1.84-0.38,2.28l-0.8,0.51
				c-0.25,0.27-0.56,0.2-0.97-0.54c1.73,2.69-0.69,2.21-1.37,2.41c0,0,0,0.01,0,0.01c0,0,0-0.01,0-0.01c-0.01,0-0.02,0-0.02,0
				c0.01-0.01,0-0.03,0.01-0.04c-0.19-0.41-0.21-0.72-0.26-1.03c-0.12,0.86-0.49,1.24-0.98,1.42c0.07,0.3,0.17,0.67,0.4,1.23
				c-0.94-0.91-1.45-1.17-1.78-0.64c0.88,0.32,1.46,0.98,1.69,1.29c-0.66-0.34-1.16-0.61-1.56-0.78c0.33,0.34,0.55,0.56,0.49,0.51
				l-0.63-0.56c-0.04-0.01-0.07-0.03-0.11-0.04c0.01,0.31-0.3,0.17-0.3,0.46l-0.89-0.28c-0.02,0.02-0.03,0.04-0.05,0.05
				c0.38,0.26,0.51,0.43,1.04,0.6c-1.02,0.18-1.31,0.67-1.37,1.28c0.58-0.15,1.15-0.3,1.74-0.46c2.24-0.6,4.47-1.16,6.78-1.83
				c1.3,1.25,2.6,2.52,3.92,3.79l1.76,1.65l1.39,1.27c-0.29-0.13-0.77-0.42-1.28-0.74c-0.55-0.36-0.94-0.55-1.66-1.04
				c-1.23-0.8-1.79-0.92-0.44,0.77c0.49,0.57,0.96,1.12,1.43,1.67c0.45,0.5,0.88,0.98,1.31,1.46c0.44,0.46,0.87,0.92,1.29,1.37
				l0.33,0.33c0.07,0.13,0.04,0.29,0.06,0.43l0.07,0.88c0.12,1.18,0.24,2.32,0.36,3.45c0.07,0.58,0.14,1.16,0.21,1.74
				c0.07,0.46,0.15,0.76,0.23,1.14c0.35,1.45,0.7,2.91,1.08,4.46l0.14,0.59c0.05,0.23,0.09,0.31,0.14,0.74
				c0.08,0.72,0.16,1.45,0.24,2.2c0,0.75-0.22,1.48-0.38,2.26c-0.09,0.39-0.19,0.78-0.29,1.18l-0.15,0.74
				c-0.37-0.08-0.61-0.26-0.75-0.52c-0.07-0.13-0.12-0.27-0.14-0.45c0.01-0.26,0.04-0.55,0.09-0.86c0.11-0.62,0.26-1.34,0.45-2.11
				c0.06-0.79,0-1.66-0.01-2.52c-0.07-2.27-0.12-4.28-1.56-4.46c0.08,0.97,0.16,1.95,0.25,2.93l0.14,1.58
				c0.03,0.77,0.13,1.55,0.08,2.32c-0.18,0.75-0.36,1.51-0.58,2.27c-0.12,0.44-0.17,0.66-0.22,0.9l-0.17,0.74
				c-0.22,0.98-0.44,1.98-0.66,2.97c-0.41,2-0.83,4.04-1.25,6.1c-0.2,1.04-0.4,2.08-0.6,3.14l-0.29,1.59l-0.15,0.8l-0.07,0.4
				l-0.18,0.71c-0.72,0.45-1.46,0.95-2.01,1.46c-0.44,0.27-0.78,0.63-1.07,1.06c-0.57,0.85-0.9,1.95-1.24,3.13
				c-0.34,1.18-0.7,2.44-1.31,3.6c-0.31,0.58-0.68,1.13-1.14,1.64c-0.23,0.25-0.49,0.5-0.77,0.73c-0.3,0.26-0.54,0.34-1.03,0.83
				c0.4-0.01,0.61,0.23,0.62,0.7c0.02,0.47-0.12,1.19-0.62,1.92c-0.22,0.39-0.52,0.78-0.85,1.21c-0.19,0.26-0.39,0.54-0.6,0.83
				c-0.4,0.52-0.86,1.06-1.36,1.6c0.01,0.02,0.01,0.01,0.02,0.03l-0.32,0.3c-0.86,0.9-1.76,1.73-2.57,2.4
				c0.03,0.01,0.06,0.03,0.09,0.04l-0.1-0.04c-0.11,0.09-0.24,0.22-0.35,0.3l0.34-0.31l-0.91-0.33c-0.02,0.03-0.04,0.06-0.05,0.08
				c0,0.01,0.01,0.02,0.01,0.03c0.04,0.09,0,0.14-0.09,0.19c-0.04,0.04-0.09,0.03-0.15,0.1c-0.01,0.02-0.03,0.04-0.04,0.06
				c-0.11,0.26-0.22,0.54-0.34,0.85l-0.29-0.05c-0.24,0.27-0.4,0.37-0.41,0.22c-0.12,0.1-0.3,0.19-0.55,0.24
				c0.24,0.5,0.35,1.02,0.83,1.57c-0.55,0.05-0.93,0.18-1.2,0.36c-0.03,0.2-0.07,0.41-0.11,0.61c-0.11,0.57-0.23,1.17-0.31,1.75
				c0.03,0.18,0.06,0.35,0.08,0.54c0.09,0.56,0.16,1.17,0.13,1.72c0.05,0.11,0.06,0.24,0.13,0.34c0.31-0.75,0.72-1.46,1.38-2.1
				l-1.02,2.61c-0.17-0.13-0.25-0.33-0.36-0.5c-0.34,0.8-0.52,1.66-0.63,2.54l1.37,0.99c-0.19,0.88,0.08,2.46-1.55,1.73
				c-0.03,0.75-0.06,1.51-0.13,2.28c0.37,0.44,0.74,0.79,0.95,0.78c-0.62,0.47-0.9,1.38-1.14,2.34c0.92-0.05,0.09,3.53,0.22,5.26
				c-0.07-0.37-0.17-0.71-0.33-0.59c-1.45,1.07,0.58,4.74-0.48,6.92c-0.07,0.1-0.14,0.16-0.21,0.22c0.08,1.05,0.07,1.99-0.12,2.7
				l-0.27-0.61c-0.1,0.08-0.23,0.17-0.38,0.21c0.45,1.96,0.37,5.67-0.76,7.21c0.1-0.75-0.15-1-0.41-1.34
				c0.03,0.74-0.05,1.24-0.31,1.3c-0.01,10.31-3.11,20.88-2.76,31.38l-1.27-2.09c-2.85,6.61,1.89,4.74,0.86,10.11
				c-2.99,14.66-6.83,29.81-8.04,44.29c0.16,1.09,0.46-0.57,0.93-0.7c-0.32,1.24-1.23,1.5-0.93,3.26l0.61-0.32
				c-1.23,3.21-1.61,7.99-2.13,12.53c-0.06,0.57-0.13,1.13-0.19,1.69c-0.05,0.39-0.01,0.27-0.01,0.33l0.03,0.08
				c0.03,0.1,0.04,0.2,0,0.35c-0.02,0.25-0.47,1.02-1.2,2.54c0,0.88,0.67-0.13,1.15-0.31c0.26-0.18,0.69-0.61,1.06-1.04
				c0.19-0.23,0.37-0.47,0.52-0.72c0.19-0.23,0.41-0.5,0.62-0.77c0.02-0.19,0.06-0.38,0.06-0.57c-0.46,0.18-0.56,0.87-0.75,1.31
				c-0.17-0.95,1.47-3.11,2.2-3.95c-0.18,0.67-0.47,1.45-0.76,2.24c0.1-0.13,0.21-0.26,0.31-0.4c1.82-1.43-1.06,2.03,0.52,0.55
				c0.46-1.1,0.84-2.13,1.06-2.7l0.87,0.41l2.82-3.49c0.92-1.6,0.37-2.78,1.77-4.74l0.44,0.59c0.87-0.56,0.56-2.88,2.44-2.47
				l-1.2,1.49c0.27,0.18,0.56,0.28,0.86,0.31c0.74-0.73,1.52-1.47,2.32-2.22c-0.31-0.32-0.59-0.59-0.36-0.97
				c0.61,0.27,0.75,0.36,0.79,0.57c0.59-0.55,1.19-1.1,1.8-1.66c0.66-1.35,1.16-2.79,1.05-4.14c0.22,0.06,0.36,0.35,0.36,0.35
				c1.74-1.59,1.3-4.81,3.09-5.11l-0.15,0.48c2.73-0.03,1.79-4.97,4.63-2.86c1.05-0.21-1.32,1.33,0.66,1.51
				c0.05-0.07,0.11-0.14,0.17-0.21l-0.15,0.21c0.04,0,0.05,0.01,0.09,0.02c0.74-0.35,0.99-0.77,1.04-1.2
				c-0.02,0.01-0.03,0.02-0.05,0.03c0.02-0.02,0.03-0.04,0.05-0.06c0.1-1.16-1.33-2.49,0.39-3.31c-0.31,0.17-0.08,0.24,0.09,0.55
				c1.13-1.37,2.46-3.37,3.49-5.08c-0.13-0.01-0.26,0-0.4-0.03l0.62-0.34c-0.07,0.12-0.15,0.26-0.22,0.37
				c3.81,0.27,4.36-5.92,8.78-5.6c0,0,0.01-0.02,0.01-0.02c-1.42-0.26-0.56-1.51-0.97-1.9c0,0,0.17,0.32,0.42,0.39
				c0.75-0.68-0.06-1.6-0.19-2.23c-0.08,0-0.15-0.01-0.24-0.04c0.09-0.33,0.24-0.4,0.42-0.47c-0.19,0.12-0.22,0.3-0.18,0.5
				c1.37,0.15,0.98-2.9,1.87-2.79c-0.59-0.57,0.1-1.03,0.71-1.69c-0.52,1.97,0.91,1.63,1.31,3.11c1.05-0.86,0.91-2.04,0.78-3.23
				c-0.29-1,0.19-2.81,1.87-4.19c0.86-0.15,1.67-0.26,2.41-0.33c-0.43-1.35,0.2-2.63,0.87-3.7c0.02-0.02,0.03-0.04,0.04-0.07
				c0.14-1.7,0.03-2.82-0.4-2.37c0.57-2.55,0.83-1.33,1.21-3.03c0.12-2.61,0.23-5.31,0.49-9.17l0.24-0.16
				c-0.69-1.97,0.82-6.06,0.42-7.41c0.28,0.21,0.36,0.89,0.59,0.81c0.01-0.09,0.02-0.18,0.03-0.27l-0.06-2.95
				c0.05,0.44,0.15,0.82,0.27,1.1c0.06-0.54,0.12-1.08,0.19-1.6c-0.04-0.04-0.09-0.14-0.14-0.3l0.19-0.16
				c0.1-0.79,0.2-1.57,0.3-2.35c-0.29-0.23-0.66,0.17-0.89,1.53c0.46-7.04,0.4-14.03,0.87-20.3l0.63,0.73
				c-0.05-3.5,0.19-8.2,0.96-10.2c-0.21-0.11-0.55-1.01-0.82-0.47c-0.75-3.95,0.99-0.82,0.52-4.13c0.14,0.92,0.26,1.81,0.58,1.99
				l-0.48-8.55c0.58-0.03,2.29-5.04,1.97-8.67c-0.35-0.17-0.9,0.81-1.03,1.71l0.08,0.92c-0.11-0.25-0.13-0.58-0.08-0.92l-0.19-2.32
				l1.62-1.62l-1.15-3.44l-0.3-0.02l0.07-0.66l0.23,0.67l1.31,0.06c-0.09-2.46-1.75-3.59-1.53-5.56c1.29-7.31,1.69-5.76,3.44-10.87
				c-2.77-0.86,0.72-8.33-1.26-9.86c2.72-6.79,2.17-17.06,3.61-26.16l0.22,0.78c1.84-3.77-2.07-4.69-1.05-8.85l0.39,1.1
				c2.21-5.26,1.49-14.92,0.6-20.19c0.39,1.1,1.5,0.67,1.54-1c-0.51-1.46-2.44,1.14-1.53-1.71c0.25,0.75,1.02,0.25,1.11-0.41
				l-1.35-3.01c1.88-7.37,3.92-16.05,3.8-23.89c0.72-1.38,1.18-0.28,1.7,0.12c0.28-6.18-0.39-12.41-0.06-17.98l1.85-0.39
				c0.28-2.72-2.55-1.94-0.58-5.32c0.32-0.77-0.14,2.35,0.55,3.39c1.92-5.33-1.38-3.38-0.61-8.57l1.83,1.55
				c1.58-3.88-0.55-4.65-1.53-6.21c-1.62-5.82,4.15-3.63,3.29-11.42c-0.79-1.3-1.41,0.27-2.19-1.03c1.1-5.32-0.11-6.07,1.01-11.4
				c2.78-2.42,0.15,1.97,2.01,0.35c0.06-0.29,0.09-0.58,0.17-0.87l0.92,0.13c-0.11-1.06-0.21-2.13-0.25-3.13
				c0.06,0.01,0.1,0.03,0.15,0.05c-0.1-0.49-0.17-0.83-0.23-1.09c-0.03,0.01-0.05,0.02-0.08,0.03c0.02-0.01,0.05-0.03,0.08-0.05
				c-0.16-0.64-0.29-0.63-0.62-0.25c0.13,0.22,0.29,0.37,0.52,0.3c-0.42,0.23-0.86,0.53-1.29,1.04c0.1-0.99,0.17-1.56,0.23-1.87
				c-0.07-3.8,1.56-4.37,0.97-8.65c0.16-0.54,0.35-0.7,0.57-0.74c0.02-0.97-0.02-1.87-0.24-2.6c0.27,0.51,0.41,0.11,0.69-0.02
				c0.3-2.08-0.86-4.37-0.88-7.2c0.97-1.45,2.21,1.1,2.33-3.42c-0.74-0.88-2.5,0.97-1.95-2.78c0,0,0.24,3.34,1.08,1.65
				c-0.09-2.93,0.23-2,1.02-3.01c0.05-0.55,0.14-1.19,0.35-2.01c-0.47-2.25-1.79-3.63-1.97-1.24c-0.12-0.98,0.79-3.04,1.59-2.2
				c0-0.04,0-0.07,0.01-0.12c-0.05-0.02-0.08-0.05-0.14-0.07c0.06-0.05,0.1-0.08,0.15-0.12c0.33-5.48-2.85-2.92-1.11-8.4
				c-0.07-0.5-0.07-0.96,0.04-0.13c-0.01,0.06-0.02,0.08-0.04,0.13c0.06,0.4,0.18,0.83,0.37,0.63c0.23-1.05,0.3-1.94,0.29-2.76
				c0.19,3.4,2.3-1.51,1.55,3.37c0.05,0.07,0.1,0.15,0.14,0.23c1.01-0.62,0.79-2.92,0.95-4.76c-0.17-0.5-0.4-0.87-0.74-0.99
				c0.19-0.57,0.39-1.03,0.59-1.49c-0.84-1.29-1.94,0.25-2.52-1.05c0.5,0.07,0.59-1.13,0.91-2.53l-1.32,1.27
				c0.08-1.21,0.17-2.4-0.03-3.88l0.34,2.47c0.38-2.61,2.67-6.42,1.79-11.14c0.44,1.28,1.27,3.81,2.17,0.78
				c-0.35-4.21,0.3-2.27,1.22-2.97c0.2-0.84,0.36-1.89,0.5-2.82c-0.45-2.1-1.89-0.46-0.73-6.52c0.07-0.8-0.78-0.13-1.2,0.63
				c-0.07,0.32-0.13,0.62-0.2,0.98c-0.12-0.25,0-0.62,0.2-0.98c1.04-4.99,0.28-7.84,1.65-12.65c-0.53,2.11-1.12,3.72-1.57,0.76
				c1.05,1.35,1.36-3.93,2.24-5.75l-0.67-0.56c0.89-1.44,1.07,0.21,1.23,1.47c0.18,0.06,0.35,0.39,0.33,1.14
				c-0.18,0.15-0.26-0.43-0.33-1.14c-0.24-0.06-0.5,0.36-0.51,1.28c0.36,2.33,2.8,1.87,3.59-1.39c0.09-2.2-0.65,0.86-0.7-0.89
				c0.47-2.15,0.5-1.02,0.68-0.8c-0.56-2.9-2.22-2.48-2.91-1.91c0.07-0.34,0.13-0.65,0.17-0.95c0.01-0.15,0.03-0.29,0.04-0.43
				c0.01-0.2,0.02-0.39,0.03-0.57c0.03-0.77-0.01-1.45-0.08-2.1c-0.05-0.39-0.13-0.75-0.2-1.12c-0.2,0.37-0.41,0.78-0.66,1.4
				c-0.84,0.59-0.24-0.8,0.53-2.13c-0.01-0.05-0.02-0.1-0.04-0.15l-10.82,14.21l-0.22,1.4c2.16-2.94,4.58-7.9,6.42-8.84l-1,1.52
				c0.22-0.01,1.22-0.61,2.4-2.79c0.31-0.53,0.39-1.01,0.11-0.76l0.91-1.06c-0.25,0.92-2.79,4.7-4.34,7.11
				c0.37-0.85,1.55-2.73,0.94-2.34c-1.4,2.13-2.56,4.3-3.85,6.41c-0.15,0.35-0.33,0.71-0.59,1.12c-0.01-0.05-0.02-0.09-0.04-0.12
				c-0.15,0.23-0.3,0.46-0.46,0.7c-0.15,0.25-0.36,0.55-0.69,0.98c0.23-0.33,0.46-0.66,0.69-0.98c0.2-0.33,0.27-0.55,0.24-0.75
				c0.14-0.11,0.19-0.05,0.22,0.06c0.21-0.34,0.42-0.66,0.63-1c0.42-0.95,0.51-1.63,0.63-2.14c-1.85,2.05-0.94,1.87-2.12,3.59
				c-0.64,0.51-1.08,0.85-0.91,0.32c-1.37,2.22-2.53,3.95-4.44,5.96c0,0,1.21-2.25,0.46-1.81l-0.85,1.12
				c-2.18,3.53-2.37,5.01-4.95,9.36C876.78,327.17,874.86,329.56,872.99,331.69z M835.4,571.59l0.16-0.38l0.36,1.24L835.4,571.59z
				 M823.64,697.67c-0.03-0.97,1-1.54,1.78-1.4C825.25,696.73,824.28,697.05,823.64,697.67z M851.89,666.22l-1.52-1
				C850.72,664,852.11,665.49,851.89,666.22z M897.11,298.41c0.02-0.11,0.19-0.35,0.38-0.62l0.81-1.31
				c-0.12,0.35-0.5,0.88-0.81,1.31L897.11,298.41c-0.02,0.05-0.02,0.1,0.01,0.1l-0.39,0.53L897.11,298.41z M886.2,313.88l0.05,0.25
				c-0.93,1.58-2.42,2.92-3.23,3.94C883.41,316.82,885.98,314.8,886.2,313.88z"/>
			<path class="st0" d="M893.45,396.06c0.25-1.24,0.21-2.45,0.12-3.62c-0.47-0.12-1.09-0.12-1.77,0.12l0.02,1.51
				c0.43,0.89-0.4,3.52,1.11,2.29l-0.3-1.81c0.29,0.52,0.74,0.65,0.6,1.68C893.32,396.17,893.38,396.11,893.45,396.06z"/>
			<path class="st0" d="M890.24,400.54l-0.17,0.63c0.05-0.1,0.09-0.16,0.14-0.25C890.22,400.8,890.24,400.67,890.24,400.54z"/>
			<path class="st0" d="M1058.91,391.3l0.21,2.07c0.04,0.4,0.07,0.84,0.11,1.28l0.22-4.12
				C1059.28,390.33,1059.05,390.76,1058.91,391.3z"/>
			<path class="st0" d="M1059.99,369c0.14,1.39,0.3,2.01,0.45,2.27l0.18-3.37C1060.41,368.27,1060.2,368.64,1059.99,369z"/>
			<path class="st0" d="M887.29,310.26l1.35-2.69l-2.21,2.9C886.47,310.72,886.89,310.56,887.29,310.26z"/>
			<path class="st0" d="M1007.01,324.02l-2.65-1.02c-0.21,0.3-0.27,0.71-0.28,1.02C1005.84,324.43,1006.67,324.35,1007.01,324.02z"
				/>
			<path class="st0" d="M822.02,511.13l-0.16-0.06c0.05,0.06,0.08,0.09,0.14,0.16C822,511.19,822.02,511.18,822.02,511.13z"/>
			<path class="st0" d="M829.79,504.67c0.31,0.07,0.68,0.09,1.04,0.09c-0.01-0.02-0.02-0.03-0.03-0.08
				c0.02,0.03,0.03,0.05,0.05,0.08c0.13,0,0.26,0,0.38-0.01c-0.06-0.03-0.13-0.07-0.16-0.08c0.02-0.08,0.02-0.17-0.01-0.26
				c-0.02-0.09-0.27-0.23-0.22-0.27l0.05-0.06l0.02-0.01l-0.02-0.14l-0.04-0.29c-0.05-0.38-0.07-0.75-0.07-1.1l0.19,0.06
				c-0.12-0.26-0.3-0.49-0.54-0.67l-0.63,1.94c-0.03,0.17-0.07,0.35-0.13,0.54L829.79,504.67z"/>
			<path class="st0" d="M849.91,423.6c0.05,0,0.07-0.01,0.14-0.01c0.25-0.04,0,0.31,0.34,0.71l0.34-0.6
				c-0.17-0.13-0.34-0.26-0.51-0.4l-0.1-0.06L849.91,423.6z"/>
			<path class="st0" d="M856.13,432.7c-0.16-0.04-0.39-0.15-0.8-0.44c-1.62-0.32,0.36,1.79-1.08,2.01
				c-0.09-0.15-0.28-0.45-0.73-0.73c-0.04,0-0.06,0.02-0.09,0.04c-0.03,0.05-0.07,0.09-0.1,0.14c-0.01,0.26,0.34,0.75,0.74,1.16
				c0.27-0.04,0.54-0.09,0.81-0.12c-0.28,0.12-0.47,0.23-0.61,0.32c0.02,0.02,0.04,0.04,0.06,0.06c-0.03-0.02-0.05-0.03-0.08-0.04
				c-0.37,0.25-0.33,0.4-0.69,0.58c3.17-0.01,2.98-0.45,2.78-1.06c-0.03-0.09-0.07-0.17-0.1-0.26c-0.34-0.14-0.69-0.28-1.12-0.6
				C855.18,433.85,855.63,433.36,856.13,432.7z"/>
			<path class="st0" d="M857.69,406.37c0.09,0.02,0.18,0.04,0.31,0.11c0-0.19-0.13-0.43-0.28-0.64
				C857.71,406.02,857.7,406.2,857.69,406.37z"/>
			<path class="st0" d="M813.27,496.34l-0.18-0.66c-0.05,0.01-0.1,0-0.15,0.01C813.04,495.91,813.13,496.13,813.27,496.34z"/>
			<path class="st0" d="M851.13,392.5C851.12,392.49,851.12,392.49,851.13,392.5c-0.01,0.01-0.01,0.03-0.01,0.04
				C851.12,392.52,851.12,392.51,851.13,392.5z"/>
			<path class="st0" d="M812.17,494.7l0.28,1.06c0.17-0.03,0.33-0.05,0.5-0.07c-0.14-0.34-0.24-0.69-0.29-1.05L812.17,494.7z"/>
			<path class="st0" d="M846.14,507.35c-0.07-0.06-0.16-0.11-0.22-0.17c-0.08,0.09-0.16,0.17-0.24,0.25
				C845.82,507.4,845.98,507.37,846.14,507.35z"/>
			<path class="st0" d="M845.8,505.9c-0.33,1.31-0.52,0.88-0.82,1.72c0.05-0.02,0.09-0.03,0.14-0.05c0.03-0.08,0.05-0.13,0.09-0.24
				c-0.01,0.06-0.04,0.15-0.06,0.23c0.08-0.02,0.15-0.06,0.24-0.08c0.1-0.2,0.19-0.4,0.29-0.6c-0.01-0.01-0.02-0.03-0.03-0.04
				c0-0.05,0.01-0.11,0.02-0.18C845.71,506.41,845.76,506.16,845.8,505.9z"/>
			<path class="st0" d="M857.13,444.39c0.14-0.12,0.27-0.17,0.29-0.32c-0.11-0.46-0.32-0.83-0.58-1.1c-0.06-0.07-0.13-0.13-0.2-0.19
				c-0.09,0.02-0.19,0.06-0.29,0.1c-0.2,0.08-0.39,0.18-0.59,0.3c-0.39,0.23-0.76,0.5-1.08,0.8l-0.46,0.45l-0.2,0.22
				c-0.04,0.04-0.05,0.07-0.11,0.11l-0.28,0.13c-0.66,0.34-1.78,0.73-1.77,0.85c-0.12,0.06-0.22,0.17-0.34,0.24
				c-0.1,0.09-0.15,0.1-0.66,0.33c-0.8,0.34-1.68,0.59-2.64,0.72l-0.15-2.26c-0.28,0.12-0.56,0.24-0.84,0.35
				c-0.04,0.07-0.07,0.15-0.12,0.23l0,0c-0.32,0.17-0.77,0.34-1.26,0.54l-0.17-0.08c-0.49,0.24-0.99,0.51-1.49,0.8
				c-0.02,0.07-0.06,0.13-0.07,0.21c-0.09-0.02-0.15-0.01-0.23-0.02c-0.15,0.09-0.3,0.17-0.45,0.27l-0.08,0.05l0.11-0.01l2.64-0.14
				c-0.47,0.43-1.27,0.9-2.07,1.22l-5.85,2.35l-0.82,0.54l0-0.21l-3.3,1.33l0.26-1.23c-0.18-0.06-0.36-0.1-0.54-0.14
				c-0.41,0.49-0.82,0.81-1.34,0.75c0.04,0.23-0.13-0.33-0.22-0.81c-0.2,0.01-0.39,0.03-0.59,0.04c-0.4,0.02-0.78,0.02-1.14-0.01
				l0.25,0.1c-1.58,0.04-2.34,2.89-3.59,3.91c-1-1.71,0.75-0.55-0.33-2.61c-0.01,0-0.01,0-0.01,0c-0.36,0.19-0.75,0.36-1.21,0.45
				l0-0.01c-0.52,0.48-1,1.15-1.78,1.04c0.09-0.3-0.03-0.51,0.01-0.67c-1.53-0.78,0.82,1.83-0.19,1.93
				c-0.3-0.96-0.43-1.17-0.92-1.54l0.3,1.63c-0.13-0.22-0.57-1.4-0.61-1.93c0.17,1.08-0.17,1.4-0.51,1.71
				c-0.29,0.28-0.44,0.46-0.12,1.4c-0.25-0.4-0.8-1.85-1.22-2.62c-0.21,0.17-0.39,0.41-0.45,0.5c-0.12,0.03-0.09-0.16-0.12-0.27
				c-0.05-0.02-0.08,0-0.12,0c0.01,0.22,0.04,0.47,0.1,0.72c0.54,0.88,0.41,0.9,0.18,0.85c0.02,0.26-0.04,0.37-0.43,0.14
				c-0.04-0.28,0.23-0.19,0.43-0.14c-0.02-0.21-0.11-0.52-0.18-0.85l0-0.01c-0.17-0.18-0.32-0.31-0.47-0.42
				c-0.05,0.09-0.1,0.17-0.16,0.22l0-0.3c-0.25-0.04-0.74,0.08-0.8,0.17c-0.06,0.07-0.11,0.14-0.14,0.22c0.34,0.41,0.75,0.92,1,1.5
				c0.31,0.1,0.6,0.21,0.95,0.43c-0.15,0.19-0.11,0.61-0.16,0.87c-0.19-0.32-0.37-0.65-0.54-0.99c-0.39-0.15-0.35,0.21-0.21,0.58
				c0.11,0.42,0.42,0.72,0.17,1.01c0.38,0.17,0.78,0.3,1.1,0.54c0.11,0.26,0.08,0.71,0.13,1.05c-2-1.48-1.07,0.48-3.06-1.66
				c-0.35,0.08-0.56,0.24-0.69,0.45l-0.15,0.43c-0.15,1.04,0.69,2.67,0.19,3.52c0.16-0.18-0.31-0.43-0.6-0.72
				c-0.94,0.28-0.22,1.46,0.49,2.64c-0.55-0.56-0.63-0.87-1.15-1.28c-0.31,0.36-0.12,0.69,0.14,1.1c0.13,0.2,0.28,0.42,0.38,0.67
				c0.06,0.12,0.09,0.26,0.14,0.39c0.07,0.09,0.13,0.18,0.18,0.27c-0.77-0.7-1.2-1.02-1.51-1.06c0.75,0.53,1.22,0.98,1.4,1.17
				c-3.84-3.13-2.1-0.63-5.31-2.87c0.4,0.27,0.97,0.99,1.76,1.62c0.76,0.64,1.66,1.14,2.59,1.45l-0.3-0.26
				c1.23,0.58,0.7,0.46,0.76,0.6c0.27,0.18,0.4,0.29,0.07,0.07c-0.04-0.03-0.07-0.05-0.07-0.07c-0.2-0.13-0.45-0.31-0.71-0.42
				c0.31,0.3,0.52,0.51,0.6,0.68c0.04,0.1,0.09,0.11,0.05,0.27c-0.04,0.19-0.1,0.37-0.16,0.56c-0.25,0.74-0.55,1.5-0.22,2.45
				c-0.44-0.27-1.08-1.14-1.6-0.83c-1.16,1.4,0.97,2.97,1.57,4.86c-2.92-0.71,0.15-1.83-2.61-2.64c0.14,1.86,0.59,3.86,1.4,6.1
				c-4.31-0.46,1.04,2.26-2.51,2.55c1.38,0.25,1.67,0.96,1.49,1.59l0.03,0.01l-0.06,0.09c-0.11,0.3-0.29,0.59-0.53,0.79l0.53-0.79
				c0.01-0.03,0.03-0.06,0.03-0.09c-1.01-0.51-1.26,0.14-1.98-0.25c0.53,0.4,0.71,1.24,0.71,1.16c-0.12,0.07-0.62,0.11-1.92-0.05
				c1.26,0.19,1.22,0.26,1.09,0.36c-0.11,0.09-0.24,0.25,0.66,0.26c0.19-0.05,0.49-0.1,1.02-0.13c-0.2,0.03-0.4,0.07-0.6,0.12
				c-0.17,0-0.29,0-0.42,0c-0.21,0.08-0.26,0.06-0.25,0.23c0,0.2,0.08,0.39,0.17,0.59c0.17,0.4,0.37,0.81,0.02,1.31
				c1.53-0.5,0.77,0.83,1.42,1.09c-0.11-0.08-0.33-0.25-0.54-0.18c-1.29,0.42,1.19,0.92,0.42,1.53c-0.53,0.3-1.38,0.1-1.48,0.49
				c1.07-0.11,2.3,1.14,1.04,1.8c0-0.24-0.52-0.18-0.93-0.28c1.33,1.65,0.57,3.63,0.8,5.47l0.16-0.02l-0.05-0.18l0.21,0.16
				l-0.16,0.02l0.28,1.06c0.53-0.05,0.97-0.02,1,0.41c0.03,3.66-0.63,7.75,0.96,10.64c0.35,0.11,0.31-0.29,0.71-0.5
				c-0.06,0.34-0.83,0.76-0.23,0.92l0.49-0.31c-0.5,1.01,0,1.93,0.38,2.87l0.16,0.41l0.06,0.27c0.12,0.52,0.21,1.03,0.15,1.52
				c-0.03,0.24-0.09,0.48-0.2,0.7c-0.16,0.09-0.31,0.17-0.48,0.26c0.46,0.04,0.42,0.15,0.43,0.4c0.04,0.17-0.05,0.7,0.37,0.21
				c-0.31,0.77-0.61,0.79-0.69,1.27c0.13,0.06,0.55-0.57,0.74-0.84c0.29-0.54,0.3-0.43,0.43-0.24c0.24-0.31,0.5-0.61,0.64-1.05
				l0.31,0.53c0.42-0.77,1.46-0.57,2.33-0.65c0.48-0.43,0.83-0.7,1.25-1c0.02-0.09,0.06-0.15,0.07-0.26
				c-0.07-0.09-0.13-0.13-0.19-0.18l0.05,0.02c-1.4-1.44,0.18-1.72,0.12-2.62c0.33,0.38,0.81,1.09,1.01,0.98
				c-0.93-1.58-0.05-1.08-0.32-1.91c0.72,0.3,1.08,1.92,1.71,1.43c0.18-0.29-0.28-1.13-0.67-1.71c-0.13-0.15-0.26-0.32-0.37-0.5
				c0.09,0.1,0.23,0.29,0.37,0.5c0.62,0.71,1.43,1.08,1.9,1.05c0.13,0.49-0.39,0.07-0.41,0.22c0.32,0.61,0.45,0.57,0.71,0.86
				c0.11-0.04,0.2-0.08,0.31-0.11c-0.15-0.35-0.28-0.67,0.1-0.52l0.11,0.44c0.07-0.03,0.15-0.05,0.22-0.08
				c0.01-0.1,0.05-0.18,0.08-0.26c-0.45-0.59-0.9-1.15-1.17-1.64c1.46,0.45,1.16-1.6,1.79-2.09l0.75,1.54
				c0.2-0.42,0.16-0.85-0.1-1.55l-0.13,0.08l-0.19-0.87c0.13,0.29,0.24,0.56,0.32,0.78l0.5-0.32c0.01,0.44,0.11,0.83,0.33,1.34
				c0.25-0.22,0.53-0.46,0.86-0.73l0.15,0.17c-0.02-0.18,0.03-0.31,0.11-0.4c-0.07-0.21-0.16-0.45-0.3-0.73
				c-0.06,0.18-0.13,0.36-0.23,0.57l0.2-0.62c-0.01-0.01-0.01-0.02-0.01-0.03l0.01,0.03l0.16-0.49c0.28-1.72-1.28-2.18-0.03-5.4
				c-0.7-2.01-2.54-3.3-2.77-1.22c-0.17-0.87,1.07-2.61,2.18-1.83c0.04-0.32,0.05-0.62,0.05-0.88c0.01-0.35,0.01-0.81-0.01-1.15
				c-0.03-0.73-0.13-1.32-0.26-1.84c-0.26-1.03-0.66-1.72-1-2.41c-0.34-0.69-0.62-1.38-0.63-2.43c-0.01-0.53,0.05-1.15,0.2-1.89
				c0.07-0.37,0.17-0.77,0.29-1.2c0.33-0.29,0.99-0.41,1.57-0.63c0.57-0.47,1.19-0.85,0.22-0.08c-0.09,0.03-0.13,0.05-0.22,0.08
				c-0.45,0.38-0.85,0.83-0.33,0.82c1.48-0.59,2.64-1.17,3.62-1.76c0.34-0.26,0.75-0.55,1.36-0.91c-0.4,0.31-0.86,0.61-1.36,0.91
				c-1.55,1.18-0.62,1.4,0.08,1.63c0.44,0.14,0.8,0.28,0.57,0.6c-0.11,0.16-0.37,0.36-0.84,0.62c-0.24,0.13-0.52,0.28-0.88,0.45
				c-0.18,0.08-0.37,0.17-0.58,0.27c-0.12,0.15-0.11,0.42-0.17,0.65c0.26,0.04,0.47-0.01,0.64-0.14c0.15-0.14,0.64-0.11,0.94-0.24
				c0.18-0.05,0.36-0.14,0.54-0.21c-0.03-0.15-0.07-0.3-0.14-0.46c0.51,0.01,0.95-0.05,1.37-0.13c0.11-0.06,0.21-0.11,0.32-0.17
				c1.39-0.82,2.95-1.9,4.22-2.14c0.16-0.19,0.3-0.36,0.41-0.53c0.07-0.14,0.12-0.27,0.16-0.39c0.08-0.25,0.1-0.47,0.09-0.67
				c-0.03-0.4-0.21-0.72-0.41-1.01c-0.41-0.58-0.94-1.05-0.63-1.81c0.07,0.15,0.19,0.23,0.34,0.26c0.07,0.02,0.17,0.01,0.23,0.02
				c0.03,0.02,0.07,0.04,0.1,0.06c0.07,0.03,0.15,0.05,0.23,0.04c0.1-0.02,0.09,0.06,0.46-0.13l-0.48-0.14l-0.28-0.28
				c-0.18-0.19-0.35-0.39-0.51-0.61c0.03-0.01,0.05-0.03,0.07-0.06c0.18-0.15,0.36-0.3,0.55-0.46c0.42-0.37,0.82-0.79,1.22-1.32
				l-1.32,1.79c2.01-1.16,6.34-1.24,8.66-4.88c-0.34,0.82-0.88,2.2-0.24,2.6c0.6-0.3,1.1-0.72,1.41-1.34
				c0.3,0.13,0.49,0.35,0.64,0.59c0.27-0.33,0.29-0.4,0.44-0.48c0.16-0.07,0.29,0.01,0.46,0.17c0.04,0.03,0.08,0.08,0.12,0.12
				c0.15-0.32,0.24-0.62,0.13-0.78c-0.02-0.41-0.27-0.87-0.27-1.06l1.44,0.98c0.12-0.32-2.26-1.56-0.82-1.07
				c0.22,0.06,0.06,0.24,0.69,0.74c0.66,0.08,0.33-0.24-0.07-0.68c-0.42-0.42-0.97-0.89-0.58-1.35l0.75,0.55
				c0.03-0.26,0.12-0.56,0.3-0.96c-0.25-0.21-0.5-0.41-0.7-0.59c-0.69-1.09,0.32-0.82,1.38-0.6c0.22-0.34,0.47-0.71,0.78-1.15
				c0.04-0.07,0.05-0.13,0.06-0.18c-0.15-0.07-0.31-0.14-0.46-0.22c-0.33,0.02-0.76,0.16-1.1,0.36c-0.18,0.23-0.33,0.45-0.53,0.7
				c-0.05-0.26,0.2-0.5,0.53-0.7c0.4-0.53,0.77-1.08,1.1-1.61c0.06-0.49-0.12-0.96,0.59-1.48c0.09,0.02,0.15,0.04,0.23,0.06
				c0.28-0.54,0.45-0.96,0.47-1.14c0.44-1.31,0.93-2.6,1.78-4.02c-0.01-0.01-0.02-0.02-0.04-0.03c-0.75,0.99-1.33,1.26-1.2-0.8
				c0.84,1.45,2.35-2.91,3.67-4.21c-0.18-0.26-0.43-0.35-0.65-0.51c0.5-0.14,0.79-0.08,0.95,0.14c0.08,0.12,0.14,0.24,0.16,0.44
				c-0.02,0.27-0.05,0.58-0.07,0.86c0.17,0.1,0.29,0.43,0.11,1.06c-0.23,0.07-0.18-0.44-0.11-1.06c-0.22-0.11-0.55,0.14-0.76,0.79
				c1.18,0.28,1.02,1.3,2.56,1.14c-0.61-0.72-0.5-1.61-1.69-2.12c0.48-0.21,1.01-0.2,1.4-0.65c-0.12,0.05,0.06,0.23,0.15,0.32
				c-0.09-0.34-0.02-0.66,0.09-0.97c-0.04-0.3-0.17-0.57-0.46-0.76c-0.32,0.02-0.6,0.09-0.8,0.14c0.11-0.36,0.12-0.5,0.08-0.98
				c-0.04-0.46-0.13-0.86-0.27-1.22c-0.27-0.72-0.7-1.28-1.12-1.82c-0.42-0.55-0.82-1.09-1.04-1.78c-0.06-0.17-0.1-0.36-0.13-0.55
				c-0.03-0.16-0.05-0.15-0.06-0.23c-0.01-0.13,0.05-0.28,0.2-0.49c0-0.09,0.2-0.26,0.51-0.54c0.14-0.14,0.36-0.33,0.49-0.51
				c0.1-0.17,0.19-0.36,0.27-0.58c0.09-0.2,0.1-0.5,0.19-0.67c0.12,0,0.23-0.01,0.33-0.03c0.09,0.03,0.01-0.12-0.02-0.21l-0.12-0.31
				l-0.26-0.61c-0.04-0.09-0.11-0.21-0.13-0.28l0.01-0.11c-0.02-0.18,0.01-0.24-0.15-0.47c-0.85,0.37-0.39,1.37-0.71,1.41
				l-0.08,0.07c0.02,0.07,0.1,0.22,0.14,0.31c0.09,0.22,0.16,0.41,0.18,0.57c0.03,0.32-0.15,0.5-0.75,0.41
				c-0.02-0.22-0.05-0.43-0.08-0.64c-0.04-0.13-0.01-0.17,0.05-0.18L857.13,444.39z M821.52,510.95c-0.29,0-0.46,0.3-0.77-0.29
				L821.52,510.95z M825.89,454.02l0.4-0.68l0.32,1.45L825.89,454.02z M855.44,445.55l0.3-0.29c0.24-0.11,0.42,0.06,0.66,0.11
				C856.07,445.31,855.81,445.17,855.44,445.55z"/>
			<path class="st0" d="M843.96,508.78c0.01-0.01,0.01-0.01,0.02-0.02c-0.01-0.03-0.01-0.07-0.02-0.1
				C843.96,508.69,843.96,508.74,843.96,508.78z"/>
			<path class="st0" d="M844.29,508.41l-0.05,0.2c0.03-0.01,0.05-0.03,0.08-0.04l0.23,0.63l0.17,0.09l1.11-0.26l-1.32-0.62
				L844.29,508.41z"/>
			<path class="st0" d="M844.13,508.41c0.04,0.22,0.08,0.31,0.16,0l-0.08,0C844.18,508.41,844.16,508.41,844.13,508.41z"/>
			<path class="st0" d="M840.3,509.07c-0.12-0.01-0.22-0.03-0.32-0.06c-0.09,0.88-0.15,0.78-0.32,0.63
				c-0.16-0.17-0.39-0.43-0.22,0.32c-0.12-0.45-0.45-0.87-0.79-1.27c-0.02,0-0.04,0.01-0.07,0.01c0.06,0.15,0.13,0.3,0.21,0.51
				l-0.21-0.51c-0.09,0-0.17,0-0.25,0.03c-0.45,0.16-0.84,0.45-1,0.96l0.49,0.17l-0.57,0.05l-2.31,7.51l-1.11-3.01l-1.86,2.55
				l-0.24-2.12l-0.28,0.3l-0.03-1.51l-0.07,0.12c-0.15,0.08-0.27-0.69-0.1-0.81c-0.38-0.27-0.68-0.4-0.94-0.48
				c-0.28,0.18-0.56,0.36-0.91,0.51l-0.04-0.12c-0.05,0.01-0.12,0.03-0.17,0.04c-0.73,1.16-0.63,3.79-3.46,1.69
				c0.83,0.94,0.44,1.01,0.71,1.84c-0.75,0-1.43,0.78-2.33,0.44l-0.27-0.83c-0.79,1.69-1.01,3.39-2.15,3.46
				c0.15,0.34-0.62-1.05-0.59-1.35c0.08,0.93-0.84,0.26-1.47-0.09c-0.15,0.12-0.29,0.24-0.44,0.37c0.06,0.16,0.15,0.36,0.28,0.62
				l0.37,0.08c-1.56,0.29-1.74,3.18-2.84,4.34c-1.32-1.51,0.65-0.63-0.82-2.48c-1.31-0.11-1.39,1.86-2.72,1.89
				c0.04-0.3-0.12-0.48-0.11-0.64c-0.13-0.04-0.2-0.04-0.28-0.05c-0.04,0.02-0.09,0.05-0.14,0.07c-0.03,0.01-0.07,0.03-0.11,0.05
				c0.08,0.42,1.38,1.61,0.65,1.8c-0.45-0.86-0.62-1.05-1.16-1.32l0.56,1.5c-0.17-0.19-0.79-1.24-0.91-1.73
				c0.69,2-1.14,1.45-0.44,3.3c-0.33-0.38-1.05-2.07-1.55-2.64c-0.74-0.23-0.65,0.62-0.56,1.43c0.5,0.86,0.32,0.93,0.03,0.94
				c-0.05,0.31-0.19,0.48-0.59,0.31c0.04-0.34,0.35-0.31,0.59-0.31c0.03-0.25,0-0.59-0.03-0.94l0-0.01
				c-1.01-0.99-1.67-0.36-1.63-0.66c-1.13-0.08,0.43,1.02,0.44,2.41l1.09,0.38c-0.28,0.34-0.68,0.75-0.72,0.94
				c-0.09-0.32-0.21-0.62-0.23-0.98c-0.8-0.41-0.14,1.17-0.44,1.3c0.3,0.26,0.59,0.53,0.87,0.8c0.05,0.24,0.12,0.46,0.21,0.68
				c-1.67-1.71-0.78-0.15-2.6-2.18c-0.05-0.01-0.11-0.02-0.15-0.02c-0.55,0.13-0.35,0.85,0.03,1.49c0.35,0.7,1.01,1.08,0.75,1.83
				c0.11-0.21-0.37-0.34-0.68-0.54c-0.8,0.45,0.03,1.51,0.99,2.3c-0.66-0.31-0.79-0.59-1.34-0.87c-0.29,0.54,1.06,0.87,1.56,1.42
				c-0.89-0.39-1.37-0.54-1.67-0.49c0.83,0.24,1.38,0.5,1.59,0.61c-4.35-1.62-2.13,0.08-5.7-0.94c0.32,0.08,0.68,0.3,1.13,0.54
				c1.11,0.54,2.49,0.93,3.74,0.89l-0.37-0.15c1.3,0.14,0.81,0.2,0.91,0.31c0.3,0.08,0.44,0.14,0.09,0.04
				c-0.05-0.01-0.07-0.03-0.09-0.04c-0.22-0.06-0.52-0.14-0.79-0.17c0.82,0.37,0.87,0.5,0.89,0.84c0.08,0.76,0.12,1.56,0.8,2.29
				c-0.49-0.08-1.4-0.62-1.73-0.16c-0.46,1.7,2.05,2.32,3.41,3.8c-2.91,0.45-0.64-1.7-3.44-1.4c0.88,1.63,2.12,3.25,3.87,4.96
				c-4.19,1.22,1.99,1.63-1.2,3.24c1.42-0.3,2.01,0.22,2.14,0.86l0.03,0l-0.02,0.1c0.04,0.31-0.01,0.64-0.14,0.91l0.14-0.91
				c0-0.03,0-0.06-0.01-0.1c-1.2-0.07-1.14,0.61-2.01,0.53c1.39,0.39,2.14,1.94-0.66,2.24c1.36-0.12,1.37,0.25,1.28,0.52
				c-0.12,0.11-0.33,0.31,0.62,0.15c0.22-0.1,0.57-0.21,1.18-0.34c-0.25,0.07-0.49,0.16-0.73,0.26c-0.17,0.03-0.3,0.06-0.44,0.08
				c-0.15,0.06-0.24,0.12-0.28,0.16c-0.17,0.34,0.73-0.18,0.47,1c1.47-0.96,1.1,0.5,1.89,0.53c-0.14-0.04-0.44-0.12-0.64,0.02
				c-1.27,0.82,1.6,0.45,0.98,1.25c-0.48,0.45-1.48,0.56-1.47,0.96c1.13-0.46,2.96,0.24,1.78,1.28c-0.08-0.22-0.65,0.02-1.15,0.07
				c2.85,1.39,1.49,4.72,4.7,6.01l-2.06,0.4c-1.85,2.43,3.51-0.39,3.7,0.84l0.05,0.65c0.02,0.13,0.01,0.22-0.04,0.2l-0.11,0.06
				c-0.15,0.09-0.31,0.21-0.46,0.36c-0.31,0.29-0.59,0.7-0.79,1.13c-0.38,0.84-0.42,1.95,0.21,1.49c0.37-0.69,0.38-0.92,0.87-1.95
				c-0.14,0.31-1.03,2.46-0.4,1.17l0.57-1.4c-0.72,1.94-0.24,1.51-0.06,1.16c0.22-0.3,0.19-0.48-0.01,3.45
				c0.28-1.28,0.33-0.68,0.48-0.17c0.12,0.48,0.38,0.9,0.32-1.49c0.28,2,0.13,3.47,0.36,4.19c0.07-0.94,0.07-1.94,0.01-3
				c-0.27-2.79,0-0.96,0.72,1.51c0.68,2.49,1.88,5.7,1.37,3.1l0.09,0.38c0.5,1.83,1.3,4.24,1.25,3.73c-0.36-1.3-0.65-2.08-1.17-3.73
				c-0.07-0.56-0.28-1.45-0.4-2.03c-0.11-0.52-0.2-0.96-0.29-1.37c-0.14-0.69-0.18-1.04-0.25-1.58c0.86,2.81,0.79,2.01,2.03,5.42
				c-0.79-2.44-1.29-3.53-1.93-5.72c-0.08-0.7,1.06,1.66,1.57,2.17c-1.12-2.84-0.79-2.32-2.21-5.49c-0.04-0.58-0.6-1.93-0.55-2.25
				l0.51,0.9c-0.92-1.71-0.68-1.34-0.34-0.86c0.34,0.49,0.79,1.09,0.25,0.18c0.64,1.06,0.95,1.57,1.45,2.4l-0.58-1.23
				c0.4,0.7,1.4,2.38,2.03,3.3c0.07,0,0.15,0.03,0.22,0.05c-0.9-1.58-0.7-0.91-1.66-2.54l1.77,2.56c0,0,0,0,0,0
				c-0.16-0.58-2.16-3.45-2.71-4.08c0.08-0.53-0.74-2-0.4-2l1.19,1.29c-0.41-0.76-0.37-1.01,0.72-0.34
				c-0.36-0.31-1.01-0.9-1.41-1.18c-1.64-1.55,2.04,1.51,0.25-0.19c0.45,0.4,0.69,0.71,1.4,1.28c-0.47-0.66-0.96-1.25-1.45-1.74
				c0.92,0.62,3.09,1.13,2.3,0.29c-0.53-0.23-1.26-0.42-1.38-0.4l0.19,0.17c-0.19-0.11-0.23-0.16-0.19-0.17l-0.45-0.39
				c0.74,0.25,1.49,0.47,2.24,0.67c-0.64-0.37-1.28-0.7-1.92-0.98l-0.43-0.13l0.06-0.03l0.37,0.16l1.87,0.55
				c-0.34-0.42-2.75-1.07-2.57-1.15c0.38-0.08,0.65-0.14,0.86-0.19c0.07-0.01,0.14-0.03,0.2-0.04c0.08-0.07,0.15-0.13,0.22-0.2
				c0.14-0.12,0.29-0.22,0.43-0.31c0.58-0.36,1.23-0.61,2.21-1.24c-0.78-0.23-1.2-0.51-1.4-0.82c-0.39-0.6,0.45-1.18,0.57-1.73h0
				c0.35-0.24,0.43-0.53-0.13-0.93c1.39-0.08,2.49-0.29,3.39-0.62c0.66-0.45,1.56-0.69,1.97-1.34c0.68-0.59,1.27-1.16,2-1.62
				c-0.03-0.2-0.05-0.39-0.03-0.58c-0.11,0.03-0.21,0.05-0.32,0.05c0.27-0.53,0.51-0.7,0.79-0.87c0.08-0.07,0.19-0.13,0.3-0.2
				c-0.12-0.37-0.14-0.68,0.24-0.74l0.11,0.42c0.14,0.01,0.26,0.01,0.38,0c0.24-0.37,0.46-0.77,0.67-1.18l0.21-0.43l0.05-0.24
				c0.04-0.14,0.07-0.28,0.1-0.4c0.05-0.24,0.11-0.41,0.33-0.42c-0.73-0.37,0.17-1.64,0.96-3.12c-0.16,0.72-0.2,1.21-0.17,1.57
				c1.1-0.65,2.15-1.44,2.83-2.4c-0.06-2.05-0.48-4.01,1.3-6.59l0.68-0.44c0.17-0.03,0.35-0.07,0.52-0.12
				c0.18-0.05,0.33-0.12,0.5-0.19c0.17-0.07,0.4-0.34,0.59-0.5c-2.11-1.35,0.35-5.64-0.54-5.83c-0.29,0.17-0.59,0.33-0.92,0.35
				c0.49-0.33,0.75-0.39,0.92-0.35c1.01-0.6,1.85-1.7,2.95-1.11c0.06-1.26,0.8-2.63,1.22-3.82c-0.06-0.1-0.08-0.23-0.03-0.41
				c0,0,0.04,0.1,0.1,0.21c0.26-0.81,0.34-1.52-0.1-2.04l-1.27,1.77c0.73-1.46,1.16-2.87,1.41-4.2c0.02-0.3,0-0.59-0.08-0.86
				l-0.22-0.39l-0.1-0.17c-0.03-0.05-0.07-0.27-0.11-0.4c-0.3-1.2-0.58-2.36-0.68-3.53c-0.05-0.58-0.06-1.17,0-1.77
				c0.03-0.27,0.07-0.67,0.14-0.83c0.07-0.1,0.16-0.2,0.27-0.32l0.74-0.06c-0.26,0-0.53-0.02-0.83-0.12
				c0.38-0.59,1.49-0.09,2.44-0.19l-2.63-0.87c-0.11,0.06-0.24,0.16-0.4,0.28c0,0,0,0,0,0c0.51,0.24,0.81,0.58,0.09,1.1
				c-0.12-0.2-0.12-0.63-0.09-1.1c0,0,0,0,0,0c-0.14,0.11-0.31,0.23-0.57,0.38c-0.45-0.05-0.6-0.09-0.6-0.26
				c0-0.08,0.02-0.17,0.05-0.28c0.03-0.11,0.01-0.29,0.32-0.13c0.25,0.07,0.55,0.17,0.8,0.28c0,0,0,0,0,0c0-0.06,0-0.12,0.01-0.18
				c0.03-0.54,0.08-1.12-0.33-1.43c-0.41,0.44-0.75,0.55-1.17,0.51c-0.29-0.02-0.9-0.01-1.44-0.05c0.27,0.37,0.56,0.66,0.24,1.08
				C840.64,509.28,840.46,509.15,840.3,509.07z M815.57,522.84l0.28-0.71l0.58,1.35L815.57,522.84z"/>
			<path class="st0" d="M856.79,459.14c-0.19,0.3-0.38,0.58-0.56,0.83c0.01,0.01,0.01,0.02,0.02,0.03
				C856.42,459.71,856.58,459.44,856.79,459.14z"/>
			<path class="st0" d="M854.82,483.2c-0.06-0.03-0.15-0.1-0.24-0.18c-0.2,0.25-0.39,0.5-0.59,0.75
				C854.23,483.62,854.51,483.43,854.82,483.2z"/>
			<path class="st0" d="M858.21,456.85c-0.02,0.05-0.03,0.08-0.05,0.13c-0.05,0.76,0.31,1.28,0.83,1.52
				c0.13-0.03,0.31-0.08,0.63-0.13C858.63,458.25,859.13,457.23,858.21,456.85z"/>
			<path class="st0" d="M832.06,550.1c-0.06-0.14-0.11-0.28-0.16-0.41c-0.1,0.07-0.21,0.14-0.3,0.19c-0.32,0.26-0.43,0.54-0.46,0.81
				C831.48,550.62,831.78,550.39,832.06,550.1z"/>
			<path class="st0" d="M832.49,510.72c-0.03-0.02-0.06-0.04-0.1-0.07c-0.04,0.04-0.08,0.08-0.12,0.12
				c0.14,0.27,0.28,0.55,0.45,0.78c-0.19-0.16-0.44-0.34-0.69-0.54c-0.15,0.15-0.3,0.31-0.46,0.46c0.14,0.11,0.3,0.29,0.68,0.82
				l-0.67,1.09l0.17,1.44l1.62-1.74L832.49,510.72z"/>
			<path class="st0" d="M837.05,510.02c-0.27-0.03-0.52-0.07-0.71-0.14l-2.98,3.2l0.49,1.32L837.05,510.02z"/>
			<path class="st0" d="M841.16,399.31l0.56-0.4c-0.03-0.1-0.04-0.18-0.08-0.29c-0.06-0.14-0.11-0.28-0.16-0.42l-0.08-0.2
				l-0.04-0.09l-1.41,0.98c0.07,0.3,0.16,0.65,0.26,1.09l0.94-0.66c-0.07-0.06-0.11-0.11-0.18-0.17
				C841.04,399.22,841.09,399.25,841.16,399.31z"/>
			<path class="st0" d="M846.69,372.33l-0.25-0.35c-0.17,0.1-0.33,0.27-0.4,0.39C846.26,372.35,846.47,372.34,846.69,372.33z"/>
			<path class="st0" d="M823.44,377.46l-0.14-0.59l-0.62,0.2C821.86,377.98,822.59,377.75,823.44,377.46z"/>
			<path class="st0" d="M845.23,370.35l-0.21-0.29l-0.47,0.49C844.84,370.52,845.05,370.44,845.23,370.35z"/>
			<path class="st0" d="M837.51,364.35l0.92,0.74C838.72,364.41,838.15,364.36,837.51,364.35z"/>
			<path class="st0" d="M847.18,373.89c0.01-0.18,0.02-0.35,0.03-0.53c-0.02,0.06-0.06,0.13-0.13,0.22l-0.23-0.1
				c-0.12,0.11-0.37,0.45,0.06,0.48c0.01,0,0.02,0,0.03,0.01C847,373.96,847.1,373.93,847.18,373.89z"/>
			<path class="st0" d="M822.19,372.31c2.39,0.46-0.03,0.27,1.71,0.56c0.19-0.01,0.5,0,1.02,0.06c-0.2-0.01-0.41-0.01-0.61-0.01
				c-0.18-0.02-0.28-0.03-0.41-0.05c-0.42,0.01-0.27,0.1-0.08,0.17c0.21,0,0.34,0.27-0.06,0.52c1.57-0.17,0.67,0.48,1.29,0.66
				c-0.09-0.05-0.3-0.15-0.52-0.13c-1.33,0.15,1.07,0.56,0.25,0.83c-0.56,0.12-1.38-0.03-1.53,0.17c1.08,0,2.15,0.74,0.82,1.01
				c0.03-0.13-0.5-0.13-0.89-0.21c0.19,0.16,0.32,0.31,0.41,0.47c0.14,0.09,0.3,0.18,0.52,0.24l-0.41,0.13
				c0.03,0.21,0.03,0.43-0.02,0.64c0.66-0.23,1.3-0.43,1.26-0.09c-0.43,2.26-1.58,4.92-0.48,6.35c0.31-0.01,0.32-0.24,0.72-0.46
				c-0.09,0.22-0.87,0.64-0.33,0.61l0.49-0.29c-1.14,1.45,1.2,2.01-0.45,3.46c0.81,0.47-0.11,1.5,1.03,2.01
				c-0.23,0.43-0.72-0.05-0.69,0.38l0.8,0.59l-0.06-0.02c1.21,0.37-0.39,2.61,0.71,3.26l-0.06-0.02c-0.22,0.07-0.4,0.39-0.26,0.51
				c0.17-0.01,0.21-0.15,0.35-0.33c0.63,0.49,0.62,0.42,0.85,0.75c-0.33,0.1-0.17,0.36-0.51,0.78c0.28-0.15,0.35-0.45,0.62-0.47
				c0.15,0.22,0,0.92,0.04,1.43c0.29-0.4,0.28-0.13,0.55-0.81c0.07,0.2,0.14-0.05,0.22-0.18c0.07-0.16,0.14-0.34,0.2-0.45
				l-0.06,0.37c0.25-1.49,0.02,0.59,0.17-0.29c-0.07,0.56-0.1,0.81-0.15,1.25l0.13-0.54c-0.04,0.28-0.11,0.82-0.16,1.31
				c0.02,0,0.05,0.01,0.07,0.01c0-0.18,0-0.34,0.06-0.81l-0.06,0.81c0.02,0,0.04,0.01,0.06,0.02c0.06-0.63,0.1-1.44,0.09-1.71
				c0.15-0.07,0.34-1.07,0.42-1.06c-0.01-0.14-0.03-0.27-0.04-0.39c-0.26-2.36,0.29,2.39,0.01-0.19c0.07,0.66,0.12,1.13,0.21,1.94
				c-0.03-0.85-0.11-1.71-0.24-2.56c0.18,1.15,0.81,2.89,0.75,2.07c-0.17-0.59-0.42-1.39-0.48-1.53l0.04,0.22
				c-0.05-0.22-0.06-0.27-0.04-0.22l-0.09-0.5c0.25,0.82,0.51,1.63,0.78,2.41c-0.17-0.71-0.36-1.39-0.57-2.04l-0.15-0.44l0.03,0.07
				l0.12,0.37l0.66,1.86c0-0.03-0.02-0.06-0.01-0.1l0,0c-0.13-0.63-0.89-2.59-0.81-2.38c0.65,1.24,0.89,1.78,1.96,3.12
				c-0.86-1.43-0.79-1.38-0.63-1.27c0.15,0.11,0.41,0.27-0.3-0.56c0.44,0.44,0.73,0.73,0.98,0.76c0.29-0.07,0.49-0.25,0.66-0.46
				c0.34-0.43,0.55-1.03,1.15-1.23l0.15,0.27c1.39,0.67-1.44-2.11-0.65-2.06l0.27,0.43c0.7,0.29,1.04,0.12,1.16-0.27l1.64-1.15
				c0.37-0.45,0.51-1.49,0.52-2.38c0.08,0.5,0.57,1.45,0.7,1.27c-0.1-0.66-1.08-2.06-0.5-1.62c0.05,0.33,0.4,0.96,0.48,0.95
				l-0.34-1.63c1.3,0.71,2.75,1.39,3.26,0.23c0.39,0.46,0.5,1.04,0.69,1.56c0.56-0.58,0.73-2.02,1.26-2.48l0.78,1.63
				c0.31-0.11-0.9-2.57,0.14-1.24c0.19,0.19-0.23,0.19-0.02,0.95c1.17,1.03-0.32-1.71,0.37-1.71l0.64,1.87
				c0.91,0.92,0.17-1.14-0.32-2.2c-0.44-1.07-0.04-0.22,0.53,0.68c0.19,0.32,0.41,0.65,0.6,0.9c0.01-0.13,0.02-0.26,0.02-0.39
				c-0.35-0.54-0.61-0.88-1.01-1.53c0.36,0.28-0.35-0.68,0.01-0.37c1.38,1.48,0.29,0.42,1.04,1.22c0-0.08,0.01-0.17,0.01-0.25
				c-0.15-0.14-0.3-0.29-0.45-0.43c0.02-0.12,0.12,0.04,0.45,0.4c0-0.16,0-0.31,0-0.47c-0.03-0.06-0.11-0.15-0.3-0.31
				c0.13,0.1,0.21,0.14,0.3,0.19c0-0.01,0-0.02,0-0.03c-0.26-0.2-1.03-0.65-1.45-0.82c0.47,0.16,1.72,0.73,1.2,0.34
				c-0.52-0.16-1.03-0.33-1.54-0.49c-0.25-0.08-0.46-0.15-0.46-0.15c0.16,0.05,0.31,0.1,0.46,0.15c0.24,0.07,0.52,0.16,0.7,0.2
				c-0.7-0.3,0.13,0.03,0.81,0c-1.15-0.29,0.23-0.18-1.59-0.42c1.14,0.07,0.78,0,1.7-0.16c-1.02,0.02-0.76-0.61-1.88-0.71
				c1,0.02,1.29,0.37,2.02,0.44c-0.01-0.18-0.01-0.37-0.02-0.55c-0.31-0.2-0.67-0.39-1.36-0.48c0.4-0.15,0.9-0.19,1.16-0.46
				c-0.08,0.03,0.06,0.09,0.17,0.14c0-0.02,0-0.04,0-0.07c-0.43-0.58,0.51-1.2-0.57-1.6c0.24,0.04,0.41,0.03,0.55,0.01
				c0.01-0.54,0.03-1.07,0.08-1.59l1.2,0.81c0,0,0,0,0,0c-0.13-0.19-0.35-0.39-0.48-0.46c0.22,0.03,0.36,0.02,0.47-0.02
				c-0.03-1.41-0.21-2.21-0.63-2.82l-0.08,0.7l-0.46-1.34c0.21,0.21,0.4,0.42,0.54,0.64l0.32-2.66c0.25,1.58,0.59,2.13,1.59,2.35
				c0-0.38,0.01-0.78,0.03-1.18c-0.03,0.01-0.05,0.01-0.1,0.01c0.02-0.03,0.07-0.04,0.1-0.07c0.01-0.14,0.01-0.29,0.02-0.44
				c-0.07,0.01-0.16-0.03-0.23-0.04c0,0,0,0-0.01,0c-0.01,0-0.01-0.01-0.02-0.01c-0.29-0.05-0.6-0.17-0.87-0.27
				c0.24-0.05,0.56,0.05,0.71-0.16c-0.33-0.14-0.81-0.15-1.19-0.23c-0.1,0.02-0.19,0.02-0.26,0.01l0.09-0.06l-0.1-0.05
				c0.06,0.01,0.14-0.01,0.27-0.08c-0.02,0.04-0.09,0.09-0.16,0.13c0.05,0.02,0.11,0.04,0.17,0.05c0.27-0.05,0.58-0.19,0.78-0.27
				c-0.01-0.4-0.46,0.03-0.69-0.11c0.11-0.2,0.18-0.33,0.37-0.39c-0.39-0.1-0.64-0.23-0.59-0.67c0,0,0.49,0,0.7-0.28l-0.08-0.1
				c-0.62-0.17-1.31,0.14-2.15,0c-1.66,0.28-0.41-1.53-1.62-1.3c-0.35,0.22-0.26,0.68-0.73,0.6c0.69-0.44,0.25-0.44,0.5-0.65
				c-1.27,0.47-0.2-0.54-1.09-0.21c0.29-0.14,0.39-0.48,0.54-0.77c-0.11,0.07-0.22,0.14-0.38,0.24l0.38-0.24l0,0.01
				c0.91-0.62,0.09-0.58,1.7-1.09c-1.72,0.57-0.24-1.05-2.72,0.26l-0.17,0.3l0.05-0.73l-0.01,0.03c0,0.09-0.02,0.23-0.11,0.45
				l0.11-0.45c0-0.3-0.31-0.12,0.53-1.14c0.34-0.08,0.48,0.08,0.81,0c0.71-0.89-1.14,0.07-1.43-0.13c0.77-0.55,0.49,0.07,1.35-0.68
				c-0.02-0.28-0.7-0.03-1.06-0.03l0.45-0.29c0.64-1.19-2.3,1.41-1.09-0.01c-0.25,0.2-0.58,0.37-0.82,0.58
				c0.35-0.46,0.94-1.35,1.73-1.47c-0.12-0.16-0.66-0.06-1.24,0.25c-0.57,0.63-0.19,0.41-1.01,1.09l-1.05-0.24
				c-0.06-0.07,0.5-0.29,0.59-0.21c0.07-0.1,0.11-0.17,0.16-0.26c-0.65,0.34-1.24,0.5-0.95-1.39c-0.31,1-0.45,0.83-0.84,1.46
				c-0.2-0.41-0.83-0.31-0.87-1.03l0.4-0.65c-1.15,0.55-1.58,1.48-1.76,0.86c-0.09,0.3,0.24-1.03,0.36-1.2
				c-0.28,0.59-0.23-0.2-0.28-0.81c-0.03-0.6-0.12-1.01-0.34,0.4l0.06,0.26c-0.52-0.7-1.14,1.3-1.38,1.7
				c-0.28-2,0.21-0.15-0.04-2.47c-0.48-1.04-0.64,0.96-1.15,0.33c0.01-0.25-0.06-0.49-0.05-0.62c-0.82-1.12,0.57,1.92,0.02,1.78
				c-0.21-0.98-0.3-1.21-0.59-1.67l0.24,1.62c-0.09-0.24-0.38-1.47-0.43-1.97c0.28,2.14-0.74,0.92-0.43,2.94
				c-0.17-0.49-0.5-2.38-0.75-3.11c-0.41-0.51-0.41,0.33-0.4,1.13c0.25,1.02,0.13,1.01-0.03,0.91c-0.04,0.28-0.13,0.39-0.35,0.07
				c0.04-0.3,0.22-0.15,0.35-0.07c0.03-0.23,0.03-0.57,0.03-0.91l0-0.01c-0.53-1.35-0.95-1.01-0.91-1.28
				c-0.65-0.54,0.2,1.14,0.13,2.48l0.61,0.8l-0.57,0.65l0.03-1.06c-0.51-0.7-0.4,1.14-0.77,1.2l0.45,1.12l-0.24,0.84
				c-0.7-2.37-0.49-0.48-1.08-3.27c-0.94-1.07-0.24,2.01-0.39,2.25c0.06-0.01-0.18-0.47-0.34-0.84c-0.47-0.44-0.06,0.73,0.54,1.94
				c-0.36-0.69-0.5-0.97-0.8-1.55c-0.2,0.15,0.6,1.36,0.87,2.1c-0.53-0.9-0.82-1.35-1.02-1.51c0.51,0.75,0.83,1.32,0.95,1.55
				c-2.62-4.19-1.39-1.4-3.56-4.6c0.54,0.88,1.52,2.94,2.9,4.3l-0.2-0.33c0.85,1.03,0.48,0.68,0.52,0.8
				c0.18,0.26,0.26,0.39,0.04,0.08c-0.03-0.04-0.04-0.07-0.04-0.08c-0.13-0.19-0.31-0.45-0.49-0.66c0.21,0.37,0.32,0.59,0.36,0.73
				c0.04,0.14,0.04,0.18-0.17,0.35c-0.32,0.27-0.69,0.51-0.6,1.22c-0.3-0.4-0.65-1.25-1.11-1.38c-0.58,0.05-0.51,0.6-0.29,1.31
				c0.13,0.36,0.26,0.74,0.4,1.14c0.15,0.38,0.47,0.62,0.66,0.87c-1.14-0.99-1.18-1.13-1.19-1.25c0.06-0.18,0.25-0.43-0.78-1.44
				c-0.21,0.62,0.08,1,0.38,1.49c0.33,0.48,0.67,0.9,1.26,1.34c-1.94-1.12-1.57-0.75-1.11-0.43c0.47,0.35,1.01,0.61-0.48,0.07
				c0.63,0.25,1.05,0.45,1.31,0.57c0.26,0.13,0.36,0.18,0.36,0.21l0.03,0.01l-0.03,0l0.01-0.01c-1-0.38-1.07-0.31-1.79-0.57
				C823.96,372.54,824.67,372.76,822.19,372.31z M846.95,374.33c-0.12,0.04-0.18-0.02-0.23-0.06L846.95,374.33z M846.61,374.24
				c-0.02,0.01-0.04,0.02-0.06,0.03l-0.05-0.06L846.61,374.24z M844.71,372.82l-0.16,0.09c-0.3-0.05-0.14-0.46-0.21-0.6
				C844.78,372.17,844.34,372.96,844.71,372.82z M832.42,363.21l0.11,1.48l-0.24-0.96C832.33,363.56,832.38,363.34,832.42,363.21z"
				/>
			<path class="st0" d="M856.68,412.57c-0.16-0.14-0.23-0.24-0.26-0.32l-0.07,0.33c0.01,0,0.01,0.01,0.02,0.01
				C856.47,412.59,856.57,412.59,856.68,412.57z"/>
			<path class="st0" d="M835.28,442.36l0.18-0.07c-0.04,0.03-0.09,0.06-0.13,0.1c0.12,0.07,0.23,0.12,0.32,0.14
				c-0.06-0.17-0.07-0.29-0.07-0.38c-0.15-0.11-0.29-0.21-0.39-0.26l-0.19,0.27C835.09,442.23,835.18,442.3,835.28,442.36z"/>
			<path class="st0" d="M856.27,413.02c0.14-0.07,0.28-0.16,0.7-0.36c-0.27,0.05-0.45,0.02-0.59-0.06c-0.01,0-0.02,0-0.02,0
				L856.27,413.02z"/>
			<path class="st0" d="M834.73,441.97c-0.06,0.19-0.1,0.38-0.05,0.62l0.28-0.39c0-0.02,0.02-0.03,0.02-0.05c0,0,0,0.01,0.01,0.01
				l0-0.01c-0.08-0.06-0.16-0.13-0.23-0.2L834.73,441.97z"/>
			<path class="st0" d="M868.71,644.9c0-0.01,0.01-0.01,0.01-0.02c0-0.01,0-0.02,0-0.03L868.71,644.9z"/>
			<path class="st0" d="M845.36,396.27c-0.02-0.09,0.01-0.13,0.02-0.19l-0.06,0.06L845.36,396.27z"/>
			<path class="st0" d="M844.89,396.47c0.17-0.12,0.32-0.23,0.43-0.34c-0.05-0.15-0.1-0.3-0.15-0.46
				C844.63,395.02,844.73,395.69,844.89,396.47z"/>
			<path class="st0" d="M850.75,423.65l0.16-0.28c-0.16-0.2-0.38-0.42-0.53-0.6l-0.25,0.45c0.03,0.03,0.05,0.05,0.08,0.08
				L850.75,423.65z"/>
			<path class="st0" d="M923.21,671.36l1.24,0.2c-0.35-0.15-0.74-0.29-1.15-0.43C923.27,671.21,923.25,671.28,923.21,671.36z"/>
			<path class="st0" d="M986.7,686.25l-0.6,0.89c0.23,0.03,0.44,0.05,0.63,0.05C987.4,687.11,987.49,686.75,986.7,686.25z"/>
			<path class="st0" d="M874.6,660.68c0.44-0.08,0.97,0.05,1.51,0.19c1.07,0.28,2.18,0.59,2.7-0.76c-1.04-0.18-2.09-0.34-3.15-0.48
				l-0.76-0.09l-0.33,0.01c-0.21,0.01-0.41,0.03-0.58,0.06c-0.35,0.06-0.69,0.28-0.89,0.49c-0.19,0.33-0.21,1.01-0.19,1.41
				c-1.13-1.77-1.29-0.89-1.06-0.23c-0.44,1.25-1.02,2.75-3.19,2.66c1.21,0.75,0.58,2.11-0.49,3.25c0.01,0.01,0.01,0.01,0.02,0.02
				l-0.18,0.15c-0.53,0.54-1.13,1.03-1.67,1.34l1.67-1.34l0.17-0.17c-0.45-1.15-1.62,0.01-1.89-0.87c-0.02,1.84-2.42,4.98-4.23,3.09
				c1.61,1.98-2.12,2.02-1.6,4.04c0.45-0.15,0.97-0.21,1.65-0.09l-1.52,0.55c-0.1-0.17-0.1-0.31-0.13-0.46
				c-1.89,0.6-2.2,2.99-4.26,4.03c1.67,0.51-0.97,2.03-1.05,3.03c0.08-0.23,0.24-0.7,0.01-0.77c-1.42-0.43-0.9,2.55-2.34,2.88
				c-0.79,0.02-0.92-1.04-1.64-0.49c0.78,0.75-0.66,3.88-2.46,3.87c0.4-0.39,0.02-0.76-0.03-1.28c-2.79,5.25-8.67,8.16-11.54,13.5
				l-0.38-1.77c-4.06,1.23,0.1,3.38-2.21,5.2c-3.2,2.46-6.67,4.76-9.92,7.24c-0.81,0.62-1.61,1.25-2.39,1.89
				c-0.34,0.26-0.42,0.32-0.64,0.53c-0.24,0.35-1,0.85-1.12,1.12c0.3-0.04,0.49-0.1,0.7-0.17c0.26-0.08,0.55-0.16,0.98-0.26
				c-0.46,0.09-1.94,0.6-0.84,0.39l0.97-0.33c-0.68,0.28-0.7,0.48-0.61,0.6c0.18,0.16,0.56,0.3,0.79,0.41
				c-0.18,0.02,1.52,0.52,2.36,0.94c0.97,0.45,1.76,0.98,2.25,1.65c3.41,0.42,5.36,2.28,9.54,2.63c1.14,0.74-1.63,0.19,0.02,0.82
				l3.8,0.59l-0.21-0.01c3.8,0.11,8.95,4.06,13.6,4.64l-0.2-0.01c-0.17,0.19,0.67,0.73,1.41,0.87c0.3-0.08-0.16-0.31-0.54-0.62
				c4.06,0.79,4.93,1.03,8.08,1.85c-1.45-0.05,1.17,0.65,1.17,1.15c0.91-0.07-0.34-0.61,1.57-0.35c2.63,0.68,4.92,1.74,7.04,2.51
				c1.01-0.2,2.13,0.22,2.35-0.32c2.98,0.72,4.71,0.9,8.37,1.75l0.03,0.24c1.22-0.56,3.06,1.14,3.88,0.84
				c-0.19,0.27-0.61,0.3-0.58,0.55l1.74,0.12c-0.86,0.08-1.54,0.76-0.2,1.19c1.6-0.25-0.27-0.5,0.56-0.83l0.2,0.91
				c1.09,0.19,1.67-0.69,0.42-1.23c3.67,0.85,7.44,1.19,10.7,2l-0.54,0.57c1.89,0.16,4.35,0.65,5.25,1.51
				c0.11-0.19,0.67-0.48,0.44-0.77c2.29-0.5,0.21,1.01,2.1,0.74c-0.53,0.08-1.03,0.15-1.2,0.45c1.56,0.03,3.13,0.04,4.7,0.03
				c-0.11,0.56,2.18,2.51,4.2,2.41c0.17-0.33-0.23-0.92-0.68-1.09l-0.51,0.03c0.16-0.1,0.34-0.09,0.51-0.03l1.29-0.05l0.5,1.67
				l2.11-0.92l0.08-0.29l0.33,0.11l-0.41,0.18l-0.34,1.27c1.34,0.05,2.33-1.5,3.33-1.17c3.63,1.67,2.7,1.97,5.05,3.96
				c1.09-2.64,4.31,1.17,5.58-0.66c3.02,3.03,8.66,3.08,13.22,4.99l-0.47,0.17c1.61,2,2.99-1.73,4.99-0.52l-0.68,0.32
				c2.32,2.44,7.67,2.3,10.7,1.73c-0.68,0.32-0.7,1.42,0.19,1.55c0.9-0.41-0.06-2.43,1.27-1.39c-0.46,0.2-0.37,0.98-0.03,1.1
				l1.93-1.14c3.53,2.24,7.72,4.72,11.95,5.05c0.58,0.77-0.12,1.16-0.45,1.64c0.81,0.16,1.64,0.26,2.47,0.33l1.25,0.09
				c0.17,0,0.49,0.04,0.55,0.02l0.24-0.06c0.31-0.09,0.55-0.18,0.76-0.28c0.21-0.1,0.38-0.11,0.5-0.37c0.2,0.61,0.42,1.2,0.66,1.78
				c0.58-0.49-0.91-2.73,0.3-1.8c0.23,0.09-0.19,0.4-0.03,1.28c0.8,0.16,0.78-0.44,0.52-0.97c-0.07-0.14-0.13-0.27-0.2-0.42
				c-0.01-0.18,0-0.37,0.04-0.57c0.09-0.39,0.33-0.79,0.9-1.21l0.76,1.95c2.4-0.53,1.16-2.37,1-3.72c0.8-3.62,4.12,1.4,6.11-2.52
				c-0.12-1.11-1.08-0.88-1.19-1.99c2.54-1.48,1.95-2.66,4.5-4.13c2.9,0.99-0.92,0.94,1.65,1.68c0.02-0.02,0.04-0.04,0.06-0.06
				c0.57-0.57,1.1-1.13,1.62-1.69c-0.36-0.19-0.75-0.37-1.2-0.45c1.75-1.53,0.54-0.15,1.22,0.43c0.18-0.19,0.39-0.39,0.56-0.58
				c0.05,0.01,0.12-0.01,0.18,0c0.81-1.9,3.39-2.93,3.73-4.66c0.02,0.41,0.25,0.34,0.49,0.48c0.91-0.67,0.85-2.46,1.78-3.69
				c0.57,0.04,0.86,0.52,1.2,0.79c0.42-0.39,0.85-0.77,1.26-1.1c-0.54-0.61-1.43-1.1-0.13-2.05c0,0-0.94,1.59,0.21,1.46
				c0.99-1.42,0.81-0.57,1.99-0.54c0.29-0.23,0.58-0.44,0.88-0.64c0.4-0.81,1.5-0.62,0.61-1.89c0.67,0.26,0.89,0.33,1.15,0.32
				c0.19-0.19,0.38-0.37,0.62-0.54l-0.18,0.31c0.19,0.03,0.36-0.01,0.54-0.05c0.03-0.02,0.06-0.05,0.09-0.07
				c-0.4-0.59,1.35-2.1,0.63-2.79c0.8,0.41,0.34,1.31,0.47,1.91c0.82-0.77,1.58-1.71,2.27-2.72c-0.01-0.23-0.05-0.46-0.19-0.66
				c0.27-0.09,0.51-0.14,0.75-0.19c0.96-1.54,1.76-3.13,2.31-4.38c-0.8,2.94,1.32,0.92,2.16,1.42c1-0.86,1.86-1.69,1.96-2.57
				c0.13,0.29,0.37,0.34,0.68,0.27c0.32-0.3,0.63-0.61,1.01-0.91c-0.05,0.14-0.12,0.33-0.16,0.52c0.57-0.35,1.18-0.83,1.61-1.07
				c0.4-0.86,0.53-1.74,0.37-2.28c1.14,0.58,4.64-1.51,5.57-3.44c0.32-2.24-0.3-2.56,1.91-4.81l-0.13,1.93
				c0.9-0.54,1.36-1.06,1.63-1.55c-1.49-0.46-3.01-0.93-4.55-1.4c-4.3-1.35-8.62-2.98-11.76-5.24l-1.1,1.55
				c-3.22-1.2-7.45-2.4-8.57-4.15l0.71,0.28c0.07-0.11,0.07-0.21,0.05-0.3c-0.03,0-0.04,0-0.06,0c0.03-0.04,0.03-0.07,0.05-0.1
				c-0.17-0.35-0.96-0.57-1.91-0.79c-0.12-0.01-0.22-0.04-0.33-0.07c-0.68-0.15-1.41-0.31-2.07-0.53c-0.03,0.01-0.06,0.01-0.09,0.02
				c0.02-0.01,0-0.03,0.01-0.04c-0.29-0.1-0.56-0.21-0.8-0.33c-1.57-0.4-3.35-0.17-2.12,0.53c-5.26-2.42-12.38-4.82-18.17-7.02
				l-1.51-0.19c-0.23-0.07-0.02-0.2,0.28-0.28c-1.96-0.76-3.71-1.5-5.15-2.21c-0.11,0-0.21-0.01-0.32-0.01
				c-2.1-0.07-4.24-0.18-5.86-2.17c-0.17-0.05-0.34-0.09-0.51-0.14c-0.14,0.49-0.76,0.36-1.29,0.8c-1.39-0.77-3.74-1.18-4.92-2.24
				l0.19-0.16c-0.6-0.16-1.21-0.33-1.82-0.49c-2.7-0.04-4.84,0.04-6.57-0.89c-0.16,0.22,0.12-0.48,0.48-0.89
				c-1.88-0.59-3.83-1.24-5.91-1.99c-2.82-0.42-6.06,0.03-8.83-0.47c-0.22-2.12,2.1,0.43,2.1-2c-2.21-1.51-5.21-0.71-7.67-2.18
				c0.51-0.09,0.49-0.35,0.73-0.41c-2.25-2.08-0.33,2-2.48,1.02c0.43-0.91,0.4-1.18-0.18-1.91l-1.16,1.34
				c-0.03-0.28,0.38-1.47,0.87-1.84c-1.66,1.71-4.18-0.61-5.59,1.07c-0.03-0.45,0.68-1.58,0.94-2.45c-0.81-0.22-1.65-0.48-2.52-0.75
				c-0.16,0.07-0.32,0.14-0.47,0.22c-0.34,0.99-0.78,0.81-1.32,0.49c-0.53,0.1-1.04,0.02-1.51-0.52c0.57-0.11,1.07,0.25,1.51,0.52
				c0.43-0.08,0.87-0.28,1.32-0.49l0.01,0c-0.04-0.15-0.1-0.28-0.16-0.42c-1.05-0.35-2.16-0.73-3.34-1.19
				c-0.19,0.41-0.49,0.85-1.19,1.09l1.41,1.43l-3.15-0.51l1.51-0.59c-1.12-1.21-3.1,0.05-4.69-0.51l0.36,1.38l-2.06,0.12
				c0.59-2.42-2.17-1.28-0.27-3.69c-3.01-2.29-6.2,0.08-9.35-0.74c0.53,0.19,0.49-0.38,0.72-0.72c-1.63-1.13-3.11-0.25-4.59,0.62
				c0.46-0.67,0.97-0.77,1.19-1.4c-2.12-0.74-1.74,0.93-4.32,0.85c0.97-0.77,0.94-1.35,0.38-1.82c-0.19,0.9-0.93,1.34-1.44,1.44
				c3.06-3.81-1.24-2.97-0.06-5.47c-0.11-0.03-0.21-0.06-0.32-0.09c-1.33,0.77-3.97,1.66-3.63,3.43l0.75-0.13
				c-0.35,1.32-1.05,0.51-1.74,0.38c-0.56,0.13-1.03,0.12-0.29-0.01c0.1-0.02,0.2-0.01,0.29,0.01c0.41-0.1,0.86-0.27,0.96-0.53
				c-3.83,0.42-6.84-2.19-10.94-2.34c0.48-0.36,2.25-0.67,1.42-1.38c-1.74-0.97-3.35-1.04-5.02-0.9c-0.85,0.09-1.69,0.19-2.6,0.29
				c-0.45,0.05-0.91,0.08-1.39,0.11c-0.24,0.01-0.48,0.01-0.73,0.02l-0.18,0l-0.04,0.03l-0.07,0.05
				C874.27,661.16,874.37,660.81,874.6,660.68z M1021.8,706.06l1.4,0.58l-3.13-0.81L1021.8,706.06z M941.88,679.12l-0.9,1.25
				l-0.63-1.23L941.88,679.12z"/>
			<path class="st0" d="M850.52,391.21c-0.13,0.02-0.27,0.03-0.39,0.04c0.15,0.51,0.23,0.97,0.16,1.29c0.32,0.05,0.6,0.18,0.79,0.12
				c0.02-0.04,0.02-0.06,0.03-0.1l0.01-0.08l0,0.01c0.01-0.11,0-0.19-0.01-0.27C850.97,391.95,850.47,391.9,850.52,391.21z"/>
			<path class="st0" d="M885.53,454.73c0,0,0.02,0,0.03,0c0.03-0.92,0.05-1.45,0.07-1.83C885.61,453.32,885.57,453.97,885.53,454.73
				z"/>
			<path class="st0" d="M845.42,394.7l-0.38,0.49c-0.01,0-0.01-0.01-0.02-0.02c0.05,0.17,0.1,0.34,0.15,0.51
				c0.06,0.08,0.13,0.17,0.21,0.27c-0.02,0.02,0,0.09-0.01,0.13c0.1-0.12,0.14-0.22,0.06-0.31c0.73,1.01,0.38,0.92,1,2.3
				c-0.21,0.06-0.38,0.76-0.88-0.27c-0.12,0.04-0.26-0.07-0.47-0.22c0.02,0.25,0,0.41-0.14,0.33l-0.02-0.16
				c-0.1-0.19-0.17-0.3-0.24-0.42c-0.64-0.42-0.23,1.96-0.1,3.11c-0.48-1.95-0.96-1.99-1.53-3.29c0.01,0.12,0.43,0.01,0.91-0.19
				c-0.09-0.12-0.22-0.34-0.43-0.8c-1.02-1.18-0.17,1.56-1.19,0.88c-0.02-0.14-0.09-0.41-0.23-0.76c-0.07,0-0.16-0.02-0.27-0.07
				c-0.01,0.32,0.17,0.99,0.36,1.53c-0.32-0.65-0.7-1.15-0.99-1.4c0.03,0.1,0.07,0.21,0.16,0.37c-0.21-0.02-0.36,0.03-0.54,0.07
				c0.22,0.88,0.37,1.28,0.01,1.33l-0.24-0.99c-0.72-0.54,0.11,1.24-0.36,0.95c0.09-0.03-0.22-0.73-0.38-0.85
				c-0.15,0.45-0.1,0.85,0.07,1.59l1.39-0.98l0,0l0,0.01l0.01,0.02l0.02,0.05l0,0l0.03-0.02l0.07,0.07l0.14,0.14l0.27,0.28
				l0.26,0.26l0.04-0.03c0.08,0.1,0.16,0.21,0.25,0.32l-0.29-0.3l-0.39,0.27c0.05,0.16,0.12,0.34,0.13,0.46
				c0.05,0.35-0.12,0.43-0.7-0.06l-0.01,0.01c2.09,1.9,0.33,1.58,0.01,1.75c0.03-0.14-0.43-0.61-0.66-0.85
				c0.46,0.96,0.15,1.19-0.33,1.27c-0.24,0.04-0.53,0.03-0.79,0.04c-0.24,0-0.5,0.05-0.77,0.27l-1.64-1.41
				c-0.33,0.4,2.25,3.6,1.5,4.01l-0.39-0.93c-0.88,1.05-1.46,1.24-2.47,1.57l-0.4-0.79l-0.23-0.1c-0.07,0.54-0.33,0.85-0.39,1.53
				c-0.53-0.7-0.89-0.71-1.22-0.45c0.08,0.14,0.11,0.27-0.04,0.35c-0.06-0.06-0.1-0.1-0.16-0.16c-0.1,0.12-0.21,0.26-0.31,0.41
				l0.03,0.03c-0.01,0-0.02-0.02-0.03-0.03c-0.08,0.11-0.15,0.22-0.23,0.32c-0.23,0.26-0.51,0.48-0.81,0.51
				c0.04,0.23,0.16,0.51,0.47,0.9c-0.28-0.2-0.93-0.91-1.53-1.5l0.18,1.8c-0.2,0.02-0.44,0.14-0.65,0.1
				c-0.03,0.23-0.18,0.37-0.53,0.32c-0.02-0.27,0.13-0.37,0.3-0.45c-0.14-0.13-0.26-0.37-0.34-0.83l0.09,0
				c0-0.14-0.01-0.23-0.02-0.32c-0.09-0.04-0.18-0.09-0.26-0.12c-0.11,0.18-0.23,0.39-0.31,0.18c-0.1-0.02-0.23,0.68-0.14,1.11
				c-0.16-0.53-0.36-0.95-0.56-1.34c-0.18,0.06-0.27,0.11-0.29-0.02c-1.07,0.13,0.69,0.96,0.95,2.5c0.39,0.04,0.79,0.08,1.21,0.09
				c-0.29,0.47-0.51,1.05-0.9,1.45c-0.02-0.4-0.03-0.77-0.11-1.2c-0.49-0.07-0.66,0.28-0.77,0.79c-0.11,0.49-0.04,0.98-0.31,1.14
				l0.88,0.85l-0.15,1c-1.42-2.04-1.02,0.02-2.29-2.59c-1.73-0.35-0.62,2.81-1.47,3.61c0.17-0.1-0.18-0.49-0.37-0.85
				c-0.87-0.11-0.49,1.2-0.12,2.5c-0.36-0.7-0.37-1-0.73-1.55c-0.68,0.4,0.38,1.46,0.05,2.54c-0.37-1-0.73-1.41-1.07-1.5
				c0.53,0.74,0.72,1.39,0.73,1.7c-2.17-4.49-1.93-1.16-3.73-4.66c0.54,0.9,0.58,3.43,1.99,4.87l0-0.43
				c0.77,1.12,0.2,0.84,0.05,1.05c0.02,0.34-0.04,0.54-0.04,0.12c0-0.06,0.01-0.1,0.04-0.12c-0.02-0.26-0.07-0.58-0.22-0.82
				c-0.02,0.25-0.07,0.46-0.14,0.64c-0.01,0.15,0.01,0.23-0.02,0.3c-0.03,0.14-0.13,0.17-0.22,0.24c-0.16,0.13-0.39,0.27,0.02,0.86
				c-0.39-0.33-0.93-1.09-1.31-1.22c-0.34-0.03-0.42,0.77-0.2,1.58c0.21,0.83,0.59,1.79,0.62,2.67c-2.46-1.73,0.62-1.41-1.67-3.15
				c-0.37,1.54-0.48,3.33-0.34,5.44c-1.89-1.06-1.85-0.44-1.62,0.15c0.37,0.46,1,0.82-0.63,0.13c1.29,0.66,1.65,0.92,1.66,1
				l0.03,0.01l-0.03,0c-0.02,0.03-0.12,0.03-0.29,0.01c0.1-0.01,0.19-0.01,0.29-0.01l0.01-0.01c-1.05-0.47-1.11-0.36-1.87-0.68
				c1.14,0.64,1.54,0.83-0.89,0.43c1.22,0.25,1.22,0.31,1.14,0.39c-0.08,0.07-0.26,0.2,0.64,0.27c0.2-0.03,0.5-0.05,1.04-0.03
				c-0.2,0.01-0.41,0.03-0.62,0.06c-0.17-0.01-0.29-0.02-0.42-0.03c-0.11,0.02-0.18,0.04-0.22,0.06c-0.06,0.07-0.08,0.16-0.09,0.24
				c-0.02,0.16,0.04,0.33,0.1,0.5c0.13,0.34,0.27,0.71-0.13,1.09c1.57-0.27,0.67,0.75,1.29,1.03c-0.09-0.08-0.3-0.24-0.52-0.2
				c-1.33,0.23,1.07,0.87,0.25,1.3c-0.56,0.19-1.38-0.05-1.53,0.27c1.08,0.01,2.16,1.16,0.83,1.59c0.03-0.2-0.5-0.2-0.89-0.32
				c1.18,1.55,0.06,3.19,0.2,4.8l0.12,0l-0.05-0.45c0.11,0.16,0.25,0.31,0.41,0.46l-0.37-0.01l0.1,0.9c-0.14-0.3-0.2-0.6-0.22-0.91
				l-1.04-0.03c-1.82,1.71,2.5,0.33,2.26,1.43c-0.68,2.58-1.9,5.35-1.72,7.72c0.16-0.18,0.4-0.28,0.85-0.19
				c0.19-0.06,0.93,0.5,1.7,1.08c0.73,0.6,1.3,1.3,1.75,1.29c-0.24-1.76-1.37-0.91-1.48-2.46c2.73,3.65,1.58-3.31,4.09-1.4
				l0.51,2.02c0.41,0,0.82,0.01,1.16-0.34l-0.92-0.88c0.21-0.56,1.22-0.46,1.46,1.1c0.28-1.84,0.78-0.98,1.72-0.75
				c-0.82,0.11-0.21-0.2-0.33,0.74c0.14-0.09,0.27-0.17,0.44-0.27l0.1,0.19c0.05-0.96,1.16-0.18,1.22-0.76
				c0.07,0.31-0.02,0.5,0.09,0.71l0.45-0.56c-0.16,0.36-0.05,1.08,0.34,1.1c0.05-0.1,0.1-0.19,0.16-0.26
				c0.05-0.39-0.33-0.15-0.27-0.65l0.33,0.58c0.07-0.08,0.15-0.16,0.23-0.23c0.02-0.37-0.18-0.85-0.54-0.86
				c1.22-0.58,2.26-1.67,3.38-2.13l0.09,0.7c0.52-0.55,1.32-1.02,1.86-0.59c-0.05-0.21-0.02-0.67-0.18-0.85
				c0.24-0.83,0.36-0.25,0.5,0.02c-0.01-0.11-0.03-0.22-0.05-0.32c0.05,0.11,0.15,0.23,0.27,0.35c0.05-0.07,0.1-0.19,0.17-0.41
				c-0.04,0.15-0.1,0.29-0.15,0.43c0.01,0.01,0.01,0.02,0.02,0.02l0.32-0.13c-0.04-0.09-0.08-0.17-0.13-0.25
				c0.09,0.07,0.19,0.13,0.28,0.19l0.06-0.02l-0.03,0.04c0.11,0.08,0.23,0.16,0.34,0.24c0.02-0.04,0.04-0.08,0.06-0.11
				c-0.12-0.11-0.22-0.23-0.35-0.34l-0.25-0.16l0.06,0.01l0.2,0.15l0.42,0.26c0.03-0.03,0.05-0.07,0.07-0.11
				c-0.4-0.28-0.84-0.54-0.75-0.52c0.66,0.15,0.99,0.22,1.25,0.28h0c0.05,0.01,0.12,0.01,0.17,0.02c0.07-0.15,0.14-0.28,0.22-0.39
				c-0.04-0.05,0-0.09,0.09-0.13c0.03-0.03,0.06-0.05,0.08-0.08c0.14-0.34,0.29-0.75-0.71-0.97l0.08-0.04l1.98-3.72
				c0.81,0.23,1.39,0.08,1.88-0.24c0.39-0.44,0.77-0.79,1.18-1.08c0.4-0.41,0.82-0.82,1.37-1.03l0.05,0.2
				c0.15-0.08,0.31-0.16,0.47-0.25c-0.21-0.73-1.07-2.11-0.4-2.14l0.16,0.51c0.89,0.38,1.62-0.29,1.55-0.55
				c0.02-0.18-0.1-0.49-0.25-0.76c-0.08-0.13-0.19-0.28-0.32-0.43c-0.05-0.22-0.12-0.43-0.18-0.63c0.28,0.45,1.19,1,1.29,0.69
				c-0.36-0.6-2.02-1.17-1.18-1.24c0.17,0.3,0.82,0.64,0.91,0.56l-0.99-1.41c1.78-0.44,3.74-1.05,3.92-2.74
				c0.63,0.13,0.97,0.63,1.37,1.01c0.45-1.11,0.12-2.79,0.58-3.75l0.51,0.33l0.01-0.02c-0.25-0.24-0.42-0.48-0.22-0.73l1.72,0.99
				c1.4-0.23-0.58-1.17-1.52-1.86c-1.59-1.81,3.79,0.76,2.87-1.18c-0.75-0.56-1.3-0.46-2.05-1.01c0.93-0.71-0.2-1.31,0.76-2.01
				c2.74,0.55-0.25,0.46,2.35,0.9l-0.93,0.45c1.63-0.04,0.05,0.68,1.61,1.21c0.65-0.27-0.29-1.48-0.45-2.25
				c1.02,0.42-0.02,0.69,1.15,1.01c0.03-0.07,0.06-0.13,0.09-0.2l-0.14-0.22c0.06,0.04,0.12,0.08,0.18,0.13
				c0.06-0.14,0.13-0.27,0.19-0.41c-0.49-0.2-1.04-0.41-1.65-0.58c0.12,0.04,0.27,0.07,0.43,0.09c-1.24-1.22,0.47-1.71-0.43-2.68
				c0.26,0.2,0.38,0.17,0.64,0.25c0.25-0.33-0.86-1.22-0.92-1.82c0.88,0.05,2.07,1.04,2.11,0.13c-0.05-0.03-0.12-0.07-0.18-0.1
				c-0.13-0.02-0.29-0.03-0.51-0.04c0.12-0.02,0.22-0.04,0.31-0.06c-0.77-0.34-1.85-0.6-1.47-1.09c0,0,0.28,0.79,1.03,0.74
				c-0.15-0.74,0.29-0.22,1.25-0.25l0-0.02c-0.39-0.22-0.52-0.75-1.33-0.73c0.65-0.09,1.02,0.09,1.4,0.23
				c0.01-0.02,0.03-0.05,0.05-0.07l-0.02,0.08c0.37,0.13,0.77,0.21,1.47-0.07c-0.82-0.39-1.02-1.12-2.31-1.18
				c0.38-0.3,0.88-0.44,1.1-0.91c-0.09,0.07,0.13,0.16,0.25,0.21c-0.66-0.83,0.37-2.06-0.82-2.53c1.22,0.14,0.91-1.08,1.37-1.23
				l0.16-0.61c-0.11-0.14-0.23-0.27-0.31-0.31c0.84,0.03,0.61-0.59,0.89-1.02c-0.02-0.08-0.02-0.17-0.04-0.25
				c-0.1,0.08-0.16,0.2-0.22,0.33l0.04-0.16c-0.87,1.04-1.16-0.13-1.31-1.8c-0.03-0.41-0.06-0.85-0.1-1.29
				c-0.04-0.25-0.08-0.51-0.12-0.75c0.04-0.5-0.44-0.8-0.68-0.95c0.27-0.36,0.9-0.7,0.46-1.41c-1.36,0.77-1.89-1.58-2.95-1.94
				c-0.08-0.61,0.31-0.86,0.57-1.16c0.27-0.31,0.38-0.66-0.29-1.71c-0.07-0.11-0.15-0.18-0.23-0.23c0.02,0.1,0,0.2-0.18,0.31
				c0.02-0.18,0.01-0.28-0.01-0.37c-0.43,0-0.87,0.75-1,1.11c0.02-0.33-0.21-0.62-0.56-0.86c-0.01,0.03-0.03,0.04-0.04,0.07
				c0.01-0.04,0-0.07,0-0.11c-0.35-0.22-0.83-0.39-1.4-0.5c-0.11,0.15-0.3,0.21-0.59,0.14l-0.3-0.55c-0.02,0.35-0.06,0.39-0.13,0.31
				c-0.01,0.05-0.03,0.08-0.04,0.14l0.22,0.31l-0.43-0.24c0.01,0.04,0.02,0.07,0.03,0.11c0.01,0.01,0.02,0.02,0.04,0.03l-0.04-0.03
				c0.05,0.2,0.08,0.38,0.08,0.56c-0.19,0.35-0.49,0.63-0.58,1.07c-0.09-0.38,0.08-0.44,0.09-0.75c-0.1-0.11-0.24-0.29-0.37-0.47
				l-0.45,0.09c0.35,2.24-0.42,2.52-0.62,3.52C846.69,396.22,846.11,395.6,845.42,394.7z M819.44,444.11l-0.39,0.51l0.49-0.78
				L819.44,444.11z M826.88,443.35l0.45,1.47C827.07,443.91,826.54,443.68,826.88,443.35z M831.27,407.71l0.14-0.47l0.19,0.03
				L831.27,407.71z M854.08,417.43c-0.39-0.11-0.79-0.2-1.18-0.25C853.25,416.42,853.2,417.15,854.08,417.43z"/>
			<path class="st0" d="M849.15,375.28c-0.06-0.21-0.12-0.47-0.16-0.81c-0.03,0.24-0.02,0.48-0.03,0.73c0-0.03,0.01-0.05,0.01-0.08
				C848.98,375.07,849.06,375.16,849.15,375.28z"/>
			<path class="st0" d="M971.92,756.32c-0.61-0.17-1.19-0.36-1.63-0.55c0.44,0.61,1.25,1.17,0.94,1.45
				C971.61,757.35,971.91,756.87,971.92,756.32z"/>
			<path class="st0" d="M974.1,756.88c0.49,0.09,0.76,0.13,0.97,0.17c-0.22-0.05-0.56-0.12-0.96-0.2
				C974.1,756.85,974.1,756.87,974.1,756.88z"/>
			<path class="st0" d="M858.2,404.2c-0.03-0.11-0.04-0.21-0.07-0.3l-0.12,0.47C858.08,404.31,858.13,404.31,858.2,404.2z"/>
			<path class="st0" d="M826.5,696.09c0.01-0.02,0.03-0.04,0.04-0.06c0-0.01,0.01-0.01,0.01-0.01L826.5,696.09z"/>
			<path class="st0" d="M835.08,441.83C835.08,441.83,835.09,441.83,835.08,441.83c0.02,0.01,0.06,0.03,0.1,0.06l0.07-0.1
				c-0.01-0.01-0.02-0.01-0.03-0.02L835.08,441.83z"/>
			<path class="st0" d="M993.11,746.48c0.46-0.03,0.7,0.01,0.81,0.08c0.28-0.28,0.56-0.56,0.84-0.84L993.11,746.48z"/>
			<path class="st0" d="M1005.8,735.37c-0.05,0.19-0.04,0.36-0.01,0.52c0.13-0.11,0.27-0.24,0.43-0.43
				c-0.03-0.12-0.1-0.24-0.18-0.35C1005.97,735.2,1005.9,735.26,1005.8,735.37z"/>
			<path class="st0" d="M884.84,462.13c0.56-1.06,1.04-2.77,1.35-2.34c0.1-0.74-0.42-1.07-0.97-0.87
				C885.12,460.11,884.99,461.23,884.84,462.13z"/>
			<path class="st0" d="M1058.65,396.49c0.16,0.16,0.3,0.29,0.45,0.41l0.08-1.58c-0.02-0.08-0.04-0.16-0.06-0.24
				c-0.02,0.1-0.05,0.2-0.1,0.3c0.32,0.55,0.02,0.27-0.41-0.13c0.01,0.37,0.01,0.74,0.03,1.17L1058.65,396.49z"/>
			<path class="st0" d="M1058.65,393.72c0.06,0.07,0.11,0.15,0.16,0.22c-0.05-0.16-0.1-0.34-0.15-0.48
				C1058.65,393.54,1058.66,393.64,1058.65,393.72z"/>
			<path class="st0" d="M896.87,447.49c-0.18-0.24-0.44-0.4-0.72-0.53c0.06,0.04,0.12,0.12,0.17,0.16c0.03,0.86,0.03,1.51,0.01,2.07
				C896.66,449.04,896.99,448.68,896.87,447.49z"/>
			<path class="st0" d="M1088.42,645.97l-0.4-2.33c-0.59,0.02-1.21,0.21-1.67,0.37C1086.99,645.42,1087.7,645.93,1088.42,645.97z"/>
			<path class="st0" d="M838.81,363.63c0.34-0.01,0.72-0.21,1.13-0.48l-0.17-0.24C839.43,363.15,839.07,363.42,838.81,363.63z"/>
			<path class="st0" d="M1054.15,570.08c-0.07-0.2-0.07-0.56-0.1-0.87c0,0.23-0.01,0.48-0.01,0.72
				C1054.08,569.99,1054.12,570.04,1054.15,570.08z"/>
			<path class="st0" d="M1112.66,710.8c0.01,0.07-0.09,0.18-0.1,0.26c-0.1,0.21-0.17,0.39-0.2,0.53c-0.07,0.29-0.06,0.49,0.24,0.52
				c0.41,0.08,0.74,0.07,1.02,0.02c0.01,0,0.01,0,0.01-0.01c-0.3-0.46-0.58-0.93-0.91-1.38c-0.09-0.11-0.15-0.24-0.2-0.37l-0.26-0.7
				l-0.17,0.2c-0.24,0.26-0.41,0.5-0.59,0.75l-0.25,0.38c0.12,0.02,0.3,0.01,0.54-0.03c0.31-0.07,0.6-0.14,0.88-0.21
				c0,0,0,0.01,0,0.01C1112.73,710.74,1112.69,710.77,1112.66,710.8z"/>
			<path class="st0" d="M853.71,357.46l0.1-0.08c0.05-0.05,0.15-0.15,0.21-0.22C853.89,357.29,853.78,357.41,853.71,357.46z"/>
			<path class="st0" d="M857.05,431.35c0.16-0.28,0.3-0.54,0.38-0.74l-0.34-0.35C856.22,430.06,856.58,430.67,857.05,431.35z"/>
			<path class="st0" d="M1053.9,574.96c0.06-1.96,0.11-3.69,0.15-5.02c-0.12-0.15-0.26-0.33-0.4-0.5
				C1052.8,571.64,1053.29,573.33,1053.9,574.96z"/>
			<path class="st0" d="M844.63,385.76c0.01,0.01,0.01,0.01,0.01,0.01c0,0,0,0,0-0.01C844.64,385.76,844.63,385.76,844.63,385.76z"
				/>
			<path class="st0" d="M840.79,388.7c0,0,0.01,0.01,0.01,0.03c0.08-0.09,0.13-0.15,0.16-0.19
				C840.92,388.58,840.86,388.63,840.79,388.7z"/>
			<polygon class="st0" points="839.74,398.93 839.74,398.93 839.75,398.93 839.74,398.92 			"/>
			<path class="st0" d="M845.95,398.02c-0.06-0.2-0.15-0.45-0.26-0.72c0.02,0.06,0.04,0.12,0.06,0.18c-0.05,0.14-0.1,0.23-0.15,0.28
				C845.75,398.03,845.91,398.28,845.95,398.02z"/>
			<path class="st0" d="M846.09,372.66c0.25,0.25,1.08,0.24,1.12,0.57c0-0.06,0.01-0.12,0.01-0.18l-0.49-0.67L846.09,372.66z"/>
			<path class="st0" d="M858.86,432c-0.14-0.15-0.34-0.34-0.56-0.53c0.05,0.04,0.09,0.09,0.13,0.13c-0.01,0.2-0.03,0.33-0.07,0.43
				C858.63,432.2,858.91,432.32,858.86,432z"/>
			<path class="st0" d="M845.06,394.52c-0.11-0.09-0.2-0.14-0.3-0.21c0.06,0.19,0.12,0.39,0.18,0.59
				C844.95,394.75,844.99,394.57,845.06,394.52z"/>
			<path class="st0" d="M875.54,325.87c0.53-1.12,0.68-1.68,0.66-1.97l-1.79,2.35C874.78,326.12,875.17,326,875.54,325.87z"/>
			<path class="st0" d="M858.26,482.85c-0.06-0.21-0.2-0.45-0.35-0.69c0.03,0.06,0.06,0.12,0.08,0.17c-0.18,0.28-0.35,0.48-0.5,0.63
				C857.72,483.17,858.04,483.3,858.26,482.85z"/>
			<path class="st0" d="M840.36,388.99c-0.13,0.06-0.26,0.1-0.39,0.08c0.31,0.37,0.62,0.57,0.72,0.92
				C840.8,389.98,840.61,389.46,840.36,388.99z"/>
			<path class="st0" d="M895.17,445.96c-0.07-0.18-0.07-0.5-0.09-0.77c-0.01,0.2-0.02,0.42-0.03,0.63
				C895.09,445.88,895.13,445.92,895.17,445.96z"/>
			<path class="st0" d="M894.61,445.37c0.15,0.85,0.08,2.43-0.1,4.23c0.08,0.21,0.17,0.41,0.26,0.61c0.11-1.72,0.21-3.23,0.28-4.39
				C894.91,445.68,894.76,445.52,894.61,445.37C894.61,445.37,894.61,445.37,894.61,445.37z"/>
			<path class="st0" d="M1058.77,392.3c-0.07-2.9-0.04-5.33,0.39-8.44c0,0,0.19,2.92,0.52,2.02l0.09-1.71
				c-0.1-4.69-0.66-6.17-0.84-11.92c-0.87-7.29,1.21-13.98,0.55-19.04c-0.33-0.29-0.71,3.73-0.82,0.45c0.66,0.6,0.5-1.94,0.77-2.08
				c-0.22-0.9-0.31-1.67-0.33-2.37c0-0.17,0-0.34,0-0.51c0-0.15,0.02-0.17,0.03-0.26c0.03-0.15,0.07-0.3,0.1-0.44
				c0.08-0.51,0.51-1.43-0.59-1.17c0.23-0.06,0.18-0.21-0.03-0.44c-0.24-0.24-0.48-0.5-1.21-0.9c-0.09,0.08-0.18,0.17-0.42,0.24
				l0.39-0.26c0,0,0.02,0.01,0.03,0.02c0.69-0.72-3.5-1.72,1.75-1.14c-5.42-0.54-8.62-3.71-13.13-2.94l1.17,0.73l-4.83-2.29l0.2,0.1
				c0.66,0.3,1.47,0.7,2.56,1.3l-2.56-1.3c-2.1-0.96-2.54-0.81-5.05-2.94c1.35,0.23,3.15,0.9,4.49,1.14
				c-2.32-1.89-5.81-1.37-8.79-2.4c0.42-0.71,3.18,0.89,2.66-0.34c-2.05-0.92-4.05-1.06-6.08-1.57l0.44-0.32
				c-4.81-2.98-2.85,1.38-6.09-1.54c0.02,0.31-0.58,0.41-0.44,0.76c0.26,0.21,0.48,0.4,0.47,0.48c-0.3-0.2-0.43-0.35-0.47-0.48
				c-1.24-0.99-4.23-3.06-0.74-2.38c-1.8-0.69-4.01-1.08-5.13-0.91c1.27,1.26,1.78,1.05,2.02,2.13l-7.5-2.21
				c-0.82-0.3,0.78-0.24,1.81,0.13c-3.8-2.84-8.32-3.97-12.99-5.12c-4.66-1.17-9.47-2.36-13.62-5.9c0.75,1.29-1.01,0.53-2.17,0.8
				c-3.03-1.44-7.86-2.94-10.54-4.59l1.17-0.3c-7.75-2-13.33-2.79-18.09-5.03c-0.36,0.22,0.43-0.99,1.39-0.86
				c-4.14-0.04-6.88-5.84-8.96-3.41l1.25,0.72c-6.99-3.17-15.75-4.02-23.36-6.31c-1.04-2.47,4.36,1.38,3.67-1.33
				c-2.44-1.32-5.1-2.09-7.84-2.86c-1.37-0.39-2.75-0.77-4.12-1.24c-0.69-0.23-1.37-0.48-2.05-0.76l-1.02-0.44
				c-0.3-0.14-0.46-0.25-0.7-0.4c0.71,0.03,0.58-0.28,1.06-0.24c-2.01-1.51-1.97-0.96-1.87-0.24c0.09,0.71,0.14,1.54-1.15,0.82
				c0.12-0.99,0.05-1.29-1.18-2.33c-0.24,0.46-0.42,0.94-0.52,1.46c-0.21-0.35-0.65-1.81-0.23-2.16c-0.6,1.01-2.12,0.47-3.45,0.14
				c-0.01,1.37,0.05,2.69,0.74,3.87c-0.47-0.15-1.99-2.76-2.7-2.99c-0.75,1.73-0.19,4.02,0.4,5.52c0.94,0.39,0.86,1,0.66,1.85
				c0.15,0.89,0.09,2.09-0.38,3.32c-0.15-1.07,0.18-2.41,0.38-3.32c-0.15-0.56-0.41-1.16-0.66-1.85l-0.01-0.01
				c-1.38,0.75-1.69,5.76-1.81,4.67c-1.1,4.71,0.99,0.86,1.75,4.59l1.26-3.72l-0.32,6.74l-0.61-2.74c-1.05,3.01,0.2,6.32-0.25,9.9
				l1.22-1.54l0.16,4.14c-2.16,0.2-1.07,5.18-3.23,2.71c-1.79,7.34,0.19,12.42-0.33,19.13c-0.02-0.64-0.38-0.38-0.62-0.61
				c-0.88,3.99-0.14,6.51,0.55,9.02c-0.53-0.55-0.62-1.53-1.12-1.6c-0.56,4.77,0.75,3,0.69,8.32c-0.6-1.53-1.05-1.11-1.4,0.31
				c0.7-0.16,1.03,1.1,1.11,2.09c-2.59-3.52-2.36,2.56-3.58,3.39c-0.04,0.93-0.09,1.86-0.13,2.79c0.5,2.23,1.12,4.58,2.08,3.28
				l-0.09-1.46c0.98-0.07,0.37,1.84,0.27,3.31c0.09,1.06,0.08,2.02-0.01,0.6c-0.01-0.19-0.01-0.39,0.01-0.6
				c-0.07-0.77-0.19-1.6-0.38-1.64c0.26,7.56-1.66,15.29-1.84,23.74c-0.23-0.76-0.42-4.19-0.92-2.06c-0.42,2.51-0.6,4.7-0.68,6.8
				c0.34,2.61,0.54,5.25,0.04,8.07c0.05,2.1,0.08,4.31-0.02,6.85c-0.96,0.11-0.71-2.3-0.48-4.73c-0.1,0.33-0.18,0.65-0.3,0.98
				l-0.45-0.71c-0.19,3.43-0.37,6.91-0.52,10.47c0.01,0.91,0.03,1.76,0.13,2.47c-0.11-0.17-0.17-0.41-0.21-0.67
				c-0.07,1.54-0.13,3.09-0.19,4.67c0.56,3.71,0.26,8.34,0.52,12.12c-0.67,0.27-1.4,1.59-2.25,3.1c-0.08,2.05-0.34,4.19-1.21,6.27
				c0,0,0,0,0,0c0.27-0.17,0.43,0.09,0.52,0.59c0,0,0,0,0,0.01c0.11-0.22,0.24-0.44,0.4-0.67c-0.01,0.22,0.05,0.32,0.07,0.49
				c0.04-1.18,0.02-1.8-0.11-1.53c1.42-2.04,0.98,0.24,2.5,0.24c-0.2,1.76,0.02,5.45-1.16,5.75c-0.11,1.05-0.34,1.74-0.66,2.81
				c0.18,0.69,0.24,1.42,0.04,2.2l-0.13-0.37c-0.23,0.11-0.37,0.26-0.52,0.41c-0.96,3.38,0.91,8.45,1.74,11.38
				c-1.71-3-2.26,0.51-3.68,0.38c0.08,0.34,0.48-3.17,0.91-7.54c-0.18,0.3-0.45,0.52-0.97,0.55c-0.16,0.32-0.26,0.64-0.36,0.96
				c-0.07,0.37-0.15,0.7-0.23,1c-0.42,2.85,1.04,5.63-0.22,10.04c-0.07-0.21-0.2-0.53-0.4-0.74l-0.29,1.31
				c-0.07-0.13-0.1-0.35-0.14-0.54c-0.09,0.38-0.13,0.8-0.19,1.19c0.22,1.05,0.78,1.9,1.28,2.22c-0.66,0.16-1.31,1.13-1.78,2.31
				c-0.1,1.48-0.24,3.03-0.43,4.62c0.85,1.52,1.31,1.58,0.91,4.62l-0.83-1.5c-0.04,0.81-0.14,1.88-0.23,2.88
				c0.28,0.93,0.78,1.51,0.37,3.02c0.09-0.79-0.68-0.83-0.93-0.03c0.16,4.1,0.7,4.25,2.39,7.33l-1.5-0.68
				c0.6,3.52,1.79,10.18-0.3,10.06c3.31-0.78,0.86,7.65,0.46,10.63c0.03-1.04-0.61-1.29-0.93-1.42c1.36,6.47-1.4,12.71-2.09,19.06
				l-2.24,0.81c-0.27,3.37,3.73,4.71,3.14,8.34l-0.81-1.41c-0.51,6.47-1.04,9.06-2.06,14.24l-1.25-0.22
				c0.35,1.92,0.04,4.25,0.36,6.19c-1.76,1.99-1.87,6.25-2.17,10.94c-0.28,4.7-0.77,9.82-2.6,13.59l1.77,0.67
				c-0.44,2.97-0.65,6.82-2.11,8.1l0.11-0.66c-1.26-0.42-0.41,2.98-0.93,4.81c-0.03,1.42,0.57,2.9,0.97,1.72
				c-0.95,4.05-1.62,9.17-2.28,13.83c-0.5,6.63-0.79,13.73-2.28,17.17c0.01,2.15-0.14,4.09-0.33,5.99
				c-0.13,2.66-0.33,5.41-0.67,8.44c0.01,0,0.01,0.01,0.02,0.01c0.85,0.33,1.57,0.51,2.04-0.13l-1.58-1.18
				c1.3,0.65,2.44,0.97,3.59,1.14c0.33,0.06,0.51,0.06,0.68,0.05l0.55-0.03c0.37-0.04,0.73-0.08,1.08-0.12
				c1.41-0.17,2.69-0.29,3.7,0.91l-1.24,3.6c1.2,2.03,3.78-1,4.52,1.67c-0.11-1.39-0.34-1.05,1.14-1.92
				c-0.56-0.45-2.06,0.12-3.12-0.24l2.98-1.43l-3.89-0.07c1.99-0.95,1.76-0.63,1.62-2.29c2.55-0.51,1.76,2.46,4.28,1.67
				c0.58,0.74-0.62,1.83-0.02,2.84c2.26-0.74,2.61,3.76,4.56,2.23c0.3,0.52-0.79-0.13-0.97,0.77c1.3,0.03,2.09,0.45,2.8-0.56
				l-0.88-0.73c-0.16-0.07-0.33-0.19-0.5-0.42l0.5,0.42c0.85,0.39,1.5-1.09,2.91,0.32c1.26-0.55,2.42-2.22,1.36-2.58
				c0.51-0.1,1.13,1.2,0.42,2.22c2.63,0.89,2.58-3.59,4.54-0.99c0.26-0.06,0.48-0.03,0.05,0.05c-0.02-0.02-0.03-0.02-0.05-0.05
				c-0.21,0.06-0.46,0.19-0.44,0.44c0.55,0.47,1.08,0.65,1.59,0.55c-2.36-0.4-0.29,3.24-2.72,1.7c-0.36,2.09,1.89,1.07,2.48,2.11
				c1.74-0.93,1.09-2.83,2.06-3.6c-0.22,0.62,0.32,0.81,0.86,1.28l-0.12-1.71c0.54,0.18,1.06,0.36,1.83,0.21l-1.28,0.26
				c1.08,0.65,2.07,3.65,4.6,2.87c-0.75,0.43-2.23,1.3-1.11,2.53c2.56-0.22,0.32,0.81,1.21,2.37c2.34,0.41,1.27-2.57,4.26-0.54
				c0.35,0.13,0.31-0.87,0.09-1.4c-0.13-0.1-0.25-0.17-0.39-0.29c0.16-0.12,0.29,0.04,0.39,0.29c2,1.48,3.57,0.84,5.4,2.66
				c-0.82-0.71-1.39-1.47,0.13-1.75c-0.95,1.04,1.41,1.75,2,2.8l0.46-0.67c0.41,1.03-0.42,1.11-1.05,1.19
				c-0.08,0.18-0.28,0.34-0.63,0.28c-0.01-0.21,0.28-0.25,0.63-0.28c0.1-0.25-0.02-0.55-0.45-0.62c-0.87,0.16-1.38,1.61-1.11,2.78
				c0.74,0.22,1.51,0.45,2.34,0.7c0.77-0.7,0.94-1.86,0.9-2.44c2.17,1.61,3.39-2.61,5.33-0.66c0.53,0.2,1.33,3.74,2.93,4.59
				c1.42-1.36-1.7-1.97-0.25-3.05c1.45,5.08,6.58-0.51,9.44,3.25l-1.11,1.81c0.81,0.42,1.61,0.85,2.64,0.96l-0.91-1.51
				c1-0.14,2.88,0.95,1.74,2.2c2.45-0.91,2.55,0.17,4.19,1.28c-1.85-0.82,0.05-0.28-1.66,0.23c1.69,1.62,2.06,1.03,3.58,1.09
				c-0.16,0.22-0.19,0.53-0.16,0.84c1.16,0.23,2.11,0.42,2.31,0.08c5.54,1.67,8.98,2.51,14.99,4.28c0.81,0.15,1.69,0.38,2.18,0.24
				c0.02,0.13,0.02,0.27,0.03,0.42c0.12,0.04,0.23,0.07,0.35,0.11l0.12,0.29c0.09-0.01,0.2,0.01,0.3,0.01
				c0.52-0.51,1.22,0.12,1.75-0.3c0.23,0.23,0.29,0.46,0.29,0.68c0.63,0.2,1.27,0.45,1.91,0.71c0.03-0.1,0.06-0.2,0.08-0.3
				c0.02,0.13,0.09,0.26,0.14,0.39c1.5,0.62,2.89,1.24,3.67,1.21c-0.32,0.25-1.18,0.13-1.05,0.43l0.62,0.13
				c0.01-0.04,0.02-0.1,0.03-0.14c0.11,0.09,0.21,0.14,0.32,0.22l2.62,0.57c-0.61-0.08-1.14-0.06-1.47,0.03
				c1.26,0.44,2.54,0.34,3.71,0.49c-0.08-0.04-0.14-0.07-0.23-0.11c0.15,0.05,0.31,0.09,0.46,0.14c0.25,0.04,0.48,0.09,0.71,0.17
				l-0.02,0.03c0.42,0.13,0.85,0.25,1.27,0.37l0.43-0.18c-0.08,0.09-0.16,0.16-0.24,0.24c6.83,1.99,13.63,3.67,19.69,5.6l-0.94,0.42
				c3.88,0.91,9.04,2.42,11.1,3.7c0.17-0.17,1.23-0.26,0.69-0.67c4.54,0.35,0.69,1.19,4.49,1.63c-1.06-0.11-2.08-0.24-2.35,0.03
				l9.58,1.84c-0.04,0.29,1.24,1.17,3.05,2.07c0.44,0.22,0.9,0.43,1.39,0.64c-0.23-0.81-0.43-1.62-0.55-2.37
				c-0.31-1.99-0.06-3.55,1.39-3.51c-4.63,0.8-1.45-7.27-0.82-10.11c-0.06,0.99,0.78,1.21,1.21,1.33c-0.9-3.06-0.23-6.08,0.68-9.09
				c0.94-3.01,2.05-6.02,2.63-9.04l1-0.39c0.12-1.16,0.23-2.34,0.31-3.56c-0.14-0.23-0.29-0.46-0.43-0.69
				c-0.68-1.11-1.23-2.24-0.82-3.96l0.52,1.29c0.54-3.32,0.91-5.57,1.26-7.73c0.13-2.65,0.29-5.29,0.57-7.86l0.21,0.87
				c1.57-4.42-1.95-5.22-1.13-10.03l0.37,1.23c1.86-6.13,1.01-17.1,0.11-23.06c0.37,1.23,1.34,0.67,1.34-1.24
				c-0.48-1.63-2.13,1.46-1.39-1.86c0.24,0.84,0.91,0.22,0.97-0.54l-1.26-3.35c1.49-8.52,3.07-18.54,2.78-27.47
				c0.6-1.62,1.04-0.39,1.5,0.03c0.09-7.06-0.65-14.12-0.52-20.5l1.63-0.56c0.18-3.12-2.31-2.06-0.66-6.03
				c0.27-0.89-0.06,2.68,0.58,3.83c1.57-6.19-1.32-3.77-0.77-9.73l1.67,1.65c1.31-4.52-0.62-5.27-1.54-6.99
				c-1.62-6.54,3.62-4.39,2.63-13.22c-0.74-1.43-1.26,0.39-2-1.04c0.84-6.13-0.29-6.92,0.56-13.06c2.65-3.16-0.2,3.14,2.31-0.32
				l-0.85,4.66c1.55-3.97,0.1,3.69,1.61,3.14c0-0.01,0-0.02,0-0.03c0.04-1.92,0-4-0.06-6.12c-0.19-1.84-0.43-3.74-0.53-5.51
				c0.21,0.01,0.33,0.2,0.41,0.48c-0.01-0.66-0.01-1.31-0.01-1.96c-0.19,0.09-0.39,0.2-0.59,0.34c0.12-0.07,0.26-0.21,0.42-0.5
				c-1.28-4.04,0.31-10.67-0.64-14.13c0.27,0.56,0.39,0.1,0.64-0.06c0.21-2.4-0.95-4.93-1.08-8.16c0.63-1.25,1.46-0.09,1.85-1.36
				c0.14-1.1,0.17-2.11,0.1-2.8c-0.77-0.62-2.18,1.15-1.83-2.93c0,0,0.36,3.8,1.09,1.82c-0.25-4.26,0.37-1.36,1.53-5.17
				c-0.95-2.27,0.68-4.2-1.06-4.76c1.28-1.31,0.82-0.97,1.84-3.59c-0.04,0.05-0.08,0.06-0.12,0.09c-0.07,0.1-0.15,0.2-0.24,0.33
				c0-0.12,0.01-0.23,0.01-0.34c-0.24-0.23-0.35-1.17-0.46-2.18c-0.04-0.35-0.08-0.71-0.12-1.05c-0.05-0.22-0.12-0.19-0.2-0.26
				c-0.16-0.09-0.35-0.08-0.63,0c0.66-0.25,1-0.19,1.37,0.11c0.05,0.04,0.09,0.06,0.14,0.11c0.01,0.03,0.03,0.06,0.05,0.09
				c-0.01-0.07-0.03-0.14,0.11-0.19l0.7-0.16l0.46-0.11c-0.02-0.03-0.03-0.07-0.05-0.1c-2.84,0.34-0.32,0.04-1.21,0.14l0,0l0,0
				l0-0.01l0-0.01l0-0.02l0.01-0.04l0.01-0.09c0.01-0.06,0.02-0.11,0.02-0.17c0-0.12-0.04-0.23-0.12-0.31l-0.23-0.26l-0.12-0.14
				l-0.39-0.35c-0.09-0.03-0.18-0.08-0.31-0.15c-0.93-0.44-1.7-0.67-2.11-0.39c-1.18-1.45-1.51-2.35-3.57-4.34
				c0.29,0.35,0.85,0.54,1.14,0.64c0,0,0,0,0,0c-0.73-0.46-1.48-1.01-2.24-1.6c-0.8-0.66-1.33-1-2.81-2.35
				c-0.15-0.22-0.31-0.49-0.46-0.75c-0.15-0.18-0.31-0.36-0.42-0.58c0-0.06-0.01-0.12,0-0.18c-0.09-0.16-0.16-0.3-0.21-0.37
				c-0.24-0.42-0.48-0.83-0.72-1.24c-0.48-0.81-0.95-1.6-1.42-2.31c-0.93-1.43-1.85-2.59-2.76-3.19c0.86,0.04,0.19-1.52-0.67-3.22
				c-0.44-0.84-0.9-1.73-1.28-2.46c-0.27-0.54-0.89-1.87-0.88-2.13c0.06-0.17,0.13-0.21,0.22-0.07c0.16,0.05,0.51,0.34,0.98,0.84
				c-0.17-0.29-0.35-0.6-0.56-0.96c-0.03-0.41-0.07-0.83-0.14-1.25c-0.05-0.28-0.1-0.56-0.15-0.84c-0.11-0.55-0.26-1.09-0.4-1.59
				c-0.3-1-0.62-1.81-0.8-2.11c-0.05,0-0.09,0.04-0.15,0.02c-0.03-0.25,0.04-0.2,0.15-0.02c0.68,0.02,0.59-1.3,0.35-2.91
				c-0.12-0.81-0.25-1.69-0.37-2.51c-0.05-0.41-0.09-0.81-0.1-1.19c0-0.19,0-0.36,0-0.53c-0.01-0.24,0.01-0.51,0.05-0.73
				c-0.86-1.2-0.93-4.95-1.62-7.24c0.27,1.01,0.57,1.55,0.94,1.17c-0.82-2.55-0.2-1.93,0.38-4.17c-0.7-3.48-1.13,0.7-2-1.38
				c0.15-3.04,0.95-0.5,1.56-1.08c-0.6-1.48-1.26-2.96-1.74-4.44c0.09-0.46,0.22-0.86,0.38-1.19c0.16-0.33,0.34-0.56,0.54-0.93
				c-0.19-0.61-0.02-1.35-0.03-1.84c0-0.39,0.01-0.78,0.05-1.19c0.08-0.82,0.29-1.69,0.85-2.7c-0.26,1.27-0.5,2.53-0.83,3.79
				c0.32-0.37,0.61-0.74,0.91-1.11c0.05-0.2,0.1-0.4,0.17-0.59l0.07-4.28c1.47-4.22,2.42-4.58,3.29-4.14
				c0.2-0.45,0.53-0.86,0.93-1.11c0.43-0.29,0.9-0.55,1.39-0.79c0.5-0.26,0.98-0.51,1.29-0.7c0.11-0.06,0.2-0.12,0.31-0.19
				c0.34-0.52,0.97-0.79,1.56-0.98c0.64-0.43,1.21-0.86,1.66-1.28c0.22,0.05,0.1,0.3,0.1,0.3c0.99-0.36,1.9-0.8,2.77-1.27l0.66-0.36
				c0.32-0.17,0.64-0.33,0.96-0.5c0.64-0.34,1.29-0.68,1.92-0.87c1.2-0.48,2.65-0.22,3.53,0.43c0.98,0.62,1.72,1.63,2.31,2.46
				l-0.96-0.83c0.85,1.33,1.26,1.88,2,2.62c0.69,0.7,1.47,1.34,2.17,1.94c0.28,0.24,0.54,0.47,0.78,0.7c0-0.06,0-0.12,0.01-0.19
				c-0.01-0.21,0.01-0.25,0.05-0.75l-0.05,0.75c0,0.11,0.06,0.19,0.09,0.28c0.12,0.11,0.23,0.22,0.33,0.33
				c-0.01-0.14-0.01-0.29,0-0.45C1058.49,392.37,1058.65,391.79,1058.77,392.3z M882.01,586.23l-0.17-1.52l0.24-1.31L882.01,586.23z
				 M925.86,298.36l-1.62-1.66l3.09,0.64L925.86,298.36z M938.07,666.22l-1.29-0.07l1.78,0L938.07,666.22z M952.83,674.7
				c0.41-0.85-0.42-1.54,0.6-1.41L952.83,674.7z M1049.29,509.68c-0.38,0.28-0.77,0.65-1.15,1.26
				C1048.41,505.87,1048.42,510.07,1049.29,509.68z M1036.21,391.49c-0.32,0.28-0.61,0.46-0.83,0.57c-0.22,0.13-0.38,0.21-0.52,0.14
				c-0.26-0.08-0.28-0.3-0.06-0.54c0.57-0.83,1.19-1.54,1.84-2.18C1036.52,390.2,1036.36,390.84,1036.21,391.49z M1057.98,387.2
				l-0.15-0.2c-0.07-2.09,0.38-4.31,0.49-5.8C1058.61,382.63,1057.7,386.21,1057.98,387.2z"/>
			<path class="st0" d="M857.53,430.7c-0.05-0.08-0.04-0.14-0.05-0.21l-0.05,0.11L857.53,430.7z"/>
			<path class="st0" d="M1058.34,396.15c0.05,0.06,0.1,0.1,0.15,0.16c0.06-0.47,0.07-0.84,0.05-1.16c-0.17-0.16-0.35-0.33-0.52-0.47
				C1058.14,395.27,1058.25,395.75,1058.34,396.15z"/>
			<path class="st0" d="M1055.7,571.72c-0.17-0.26-0.4-0.42-0.65-0.57c0.05,0.04,0.11,0.13,0.16,0.17c0.05,0.98,0.06,1.72,0.05,2.36
				C1055.54,573.51,1055.83,573.07,1055.7,571.72z"/>
			<path class="st0" d="M1115.46,729.82c-0.27,1.53,0.57,3.68,0.66,5.72c0.08,1.99-0.46,3.8-2.87,3.49c0.12-0.54,0.2-1.07,0.23-1.63
				c-0.38-0.1-1.18-0.16-1.82,0.07c-0.67,0.22-1.14,0.71-0.89,2c0.02,0.57,0.84,1.53,1.4,1.52l0.39-0.23
				c-0.09,0.18-0.23,0.23-0.39,0.23l-1.14,0.69c-1.19-1.8-0.03-5.16,0.05-7.39c0.62,0.89,0.56,2.8,1.99,2.82
				c0.1-1.13-0.01-2.26-0.3-3.37c-0.19-1.08-0.57-2.12-0.76-3.08c-0.27-0.32-0.41-0.64-0.54-1c0.16,0.04,0.27,0.07,0.4,0.1
				c-0.04-0.21-0.07-0.41-0.08-0.63c-0.07-0.22-0.06-0.48,0.04-0.88c-0.04,0.29-0.05,0.59-0.04,0.88c0.1,0.29,0.36,0.48,0.9,0.65
				c-0.2,0.12-0.5,0.07-0.82-0.02c0.07,0.3,0.07,0.59,0.14,0.9c0.71,0.87,1.95,1.62,2.71,2.21c1.46-2.14-1.02-1.98-1.14-3.64
				c0.89-0.56,1.49-1.02,2.12-0.54c-0.73-2.31-1.1-3.86-0.4-6.43c0.01-0.06,1.59,2.04,2.61,1.12c-0.06-0.45-0.11-0.9-0.2-1.35
				c-0.39-0.66-0.83-1.21-1.26-1.68c-0.6-0.69-1.28-1.21-2.01-1.68c-1.36-0.97-2.83-1.79-4.53-3.26c-0.29-0.12-0.56-0.24-0.81-0.37
				l-0.35-0.2c-0.04,0-0.15-0.14-0.25-0.25c-0.02-0.03-0.06-0.05-0.06-0.09l0.26-0.23l0.52-0.46l2.15-1.9l1.11-0.97l0.14-0.12
				c0.01-0.01,0.02-0.02,0.03-0.03c0-0.01,0.01-0.03,0-0.03c-0.02,0.01-0.02,0.01-0.05,0.02l-0.71,0.29l-1.43,0.59l-2.88,1.19
				l-0.36,0.15c-0.11,0.04-0.05-0.01-0.09,0l-0.07-0.06l-0.15-0.11l-0.29-0.23l-0.14-0.12l-0.07-0.06l-0.04-0.03l-0.02-0.01
				l-0.01-0.01l0,0l0,0l0,0c0.18-0.08-0.4,0.17,0.4-0.17c-0.4-0.9-0.55-1.35-0.72-1.91c-0.16-0.55-0.28-1.11-0.37-1.66
				c-0.19-1.11-0.29-2.23-0.42-3.29c-0.26-2.11-0.67-4-2.2-5.21c-0.95,0.11-0.45,3.52-1.94,1.17c1.92-0.22,0.55-1.96,1.2-2.34
				c-3.58-1.81-0.95-4.3-3.42-5.6c0.78,0.23,0.85-1.63,1.05-2.92c-0.26,0.05-0.54,0.11-0.94,0.08l0.95-0.11c0,0,0,0.02,0,0.03
				c2.26-0.5-0.29-3.38,4.29-0.5c-4.79-2.93-1.97-7.63-8.02-8.87l-0.2,1.29l-0.55-4.55l0.02,0.2c0.1,0.61,0.17,1.38,0.13,2.5
				l-0.13-2.5c-0.32-1.93-0.98-2.01,0.3-5.26c0.91,0.85,1.48,2.35,2.39,3.2c1.02-2.93-3.3-4.03-4.32-6.45
				c1.57-0.46,1.5,2.37,3.08,0.94c-0.42-1.84-2.09-2.92-3.13-4.38l0.92-0.09c0.28-5.06-4.76-0.14-3.12-4.39
				c-0.46,0.29-1.14,0.08-1.56,0.46c-0.1,0.32-0.2,0.6-0.32,0.67c0.05-0.33,0.17-0.53,0.32-0.67c0.45-1.52,0.9-4.84,2.98-2.5
				c-0.57-1.51-1.94-2.95-3.16-3.37c-0.75,1.74-0.01,1.82-1.41,2.9l-3.1-5.78c-0.25-0.68,0.99,0.2,1.31,1.05
				c0.27-1.36,0.23-2.6,0-3.78c-0.12-0.59-0.29-1.16-0.49-1.72c-0.26-0.63-0.48-1.39-0.87-2.07c0.3-0.07,0.08-0.02,0.15-0.04l0-0.01
				l0-0.01l-0.01-0.02l-0.01-0.04l-0.02-0.08l-0.04-0.15l-0.09-0.31l-0.16-0.51l-0.34-0.97l-0.76-1.95
				c-0.52-1.31-1.03-2.63-1.42-3.99c-0.77-2.72-0.99-5.61,0.38-8.86c-1.21,1.19-1.31-0.41-2.38-1.07c-0.03-2.88-1.02-6.82-0.66-9.73
				c0.38,0.36,0.72,0.55,1.07,0.77c-0.13-0.35-0.29-0.86-0.45-1.37c-0.12-0.5-0.24-1-0.29-1.5c-0.16-0.96-0.01-2.04-0.02-2.87
				c-0.01-1.46-0.03-2.81,0-4.09c0.05-2.55,0.27-4.79,0.97-6.89c-0.35-0.28,1.27,0.27,1.38,1.09c-0.52-1.72,0.72-3.38,1.62-4.61
				c0.79-0.95,1.15-2.32-0.55-2.75l-0.29,1.19c0.69-6.39-1.63-13.49-1.87-20.11c2.02-1.53,0.12,3.81,2.51,2.49
				c0.86-4.58-0.7-9.24,0.05-14.23c0.22,0.81,0.45,0.63,0.57,1.02c1.33-4.95-1.93,0.53-1.56-3.66c0.93,0.24,1.18,0.04,1.69-1.35
				l-1.49-1.25c0.24-0.2,1.41-0.15,1.87,0.47c-1.95-1.88-0.5-7.43-2.29-8.92c0.47-0.37,2.16,0.69,2.87,0.12
				c0.57-2.21-0.13-3.75-0.79-5.25c-0.92-0.04-0.87-0.89-0.72-1.98c-0.21-0.85-0.26-1.76,0.09-2.85c0.22,0.9,0.04,1.96-0.09,2.85
				c0.17,0.68,0.44,1.33,0.72,1.98l0.01,0.01c1.3-1.55,1.15-5.37,1.36-4.56c0.32-2,0.08-2.16-0.38-2.2
				c-0.23-0.02-0.51-0.01-0.8-0.19c-0.14-0.09-0.29-0.22-0.43-0.43c-0.14-0.21-0.29-0.45-0.39-1.01c-0.05,0.18-0.09,0.35-0.12,0.54
				l-0.11,0.4l-0.22,0.79l-0.44,1.59l-0.22-4.41l0.17,0.02l0,0v0l0,0l0-0.01l0-0.01l0-0.02l0.01-0.04l0.01-0.08l0.02-0.16l0.05-0.32
				l0.05-0.44l0.11-0.87l0.16,0.92l0.08,0.46l0.02,0.32l0.01,0.16l0.01,0.08l0,0.04l0,0.02l0,0.01l0,0l0,0v0l0,0l-0.15-0.02
				l0.24,0.71l0.06-0.67c0.27,0.03,0.07,0.01,0.13,0.02l0,0l0-0.01l0-0.01l0.01-0.02l0.01-0.04l0.02-0.08l0.04-0.15l0.08-0.3
				l0.11-0.45c0.06-0.3,0.1-0.61,0.12-0.92c0.05-0.62,0.04-1.26,0.03-1.92c-0.03-1.31-0.09-2.67,0.2-4.05l-1.25,1.17l0.08-3.47
				c1.03,0.02,1.36-1.04,1.67-1.82c0.31-0.79,0.58-1.19,1.56-0.14l0.15-0.42l0.05-0.15l0.02-0.07l0.01-0.04l0.01-0.02l0-0.01l0,0
				l0,0l0,0l0,0l-0.13-0.02c0.27,0.03,0.07,0.01,0.13,0.01l0,0l0-0.01l0-0.01l0.01-0.02l0.01-0.05l0.02-0.09l0.05-0.26l0.08-0.53
				c0.04-0.35,0.08-0.7,0.12-1.03c0.06-0.68,0.08-1.34,0.07-1.98c-0.01-1.29-0.13-2.53-0.28-3.75c-0.14-1.23-0.31-2.44-0.41-3.7
				c-0.05-0.63-0.09-1.26-0.1-1.92c0-0.31,0-0.62,0-0.93c-0.01-0.16-0.03-0.31-0.06-0.47c0.03,0.46,0.4,0.29,0.72,0.41
				c0.06-0.27,0.07-0.35,0.06-0.77c-0.01-0.38-0.04-0.75-0.08-1.09c-0.09-0.69-0.24-1.32-0.43-1.9c-0.38-1.16-0.92-2.14-1.46-3.12
				c0.6,0.37,0.84,1.17,1.34,1.15c-0.1-2-0.4-2.59-0.78-3.23c-0.19-0.32-0.39-0.65-0.6-1.17c-0.1-0.26-0.21-0.57-0.31-0.95
				c-0.05-0.19-0.1-0.4-0.15-0.63c-0.05-0.23-0.13-0.76-0.12-1.19c0.14,0.51,0.35,0.84,0.51,1.02c0.16,0.13,0.28,0.13,0.39,0.08
				c0.21-0.07,0.29-0.76,0.48-1.64c-0.31,0.13-0.67-0.21-0.78-0.77c-0.14-0.55-0.1-1.42-0.13-1.71c1.33,2.38,2.08,0.71,2.61-0.45
				c0.57-1.3,1.06-2.78,2.24-1.47c-0.7-0.37-0.79-7.39-2.58-5.74l0.01,1.23c-0.99-0.06-0.27-1.58-0.08-2.8
				c-0.03-0.9,0.04-1.7,0.04-0.5c0,0.16-0.02,0.33-0.04,0.5c0.03,0.66,0.1,1.36,0.29,1.42c0.16-6.35,2.55-12.57,3.19-19.61
				c0.2,0.66,0.21,3.55,0.85,1.84c1.89-6.74,1.05-11.05,1.79-18.07c2,0.07-1.32,7.5,0.52,8.13c0.33-2.47,0.67-4.96,1.02-7.52
				c0.16-1.28,0.32-2.59,0.49-3.92l0.12-1c0.02-0.15,0.05-0.37,0.05-0.47l-0.02-0.17c-0.05-0.21,0.08-0.47-0.38-0.59
				c0.32-0.07,0.09-0.02,0.16-0.03l0,0l0,0l0,0l0,0l-0.01-0.01l-0.01-0.01l-0.03-0.03l-0.05-0.05c-0.03-0.04-0.04-0.04-0.12-0.22
				c-0.12-0.28-0.24-0.56-0.36-0.84c-0.24-0.57-0.5-1.16-0.75-1.76c-0.51-1.2-1.05-2.44-1.59-3.7c0.12-0.2,0.18-0.5,0.26-0.63
				c0.1-0.08,0.17-0.17,0.22-0.26c0.11-0.18,0.16-0.39,0.06-0.51c-0.09-0.13-0.24-0.22-0.41-0.28c-0.44-0.29-0.91-0.59-1.38-0.9
				c-1.96-1.23-4.15-2.6-5.44-5.05c-0.19,0.99-2.3-0.45-4.43-2.23c-0.01,0-0.02,0.01-0.02,0.01l-0.3-0.28
				c-1.03-0.87-2.05-1.8-2.79-2.56l2.79,2.56c0.11,0.09,0.21,0.18,0.32,0.27c1.17,0.08-1.06-1.82-0.12-1.68
				c-2.36-0.96-7.91-5.26-6.7-6.31c-1.46,0.78-3.96-3.4-6.17-3.86c0.48,0.58,0.91,1.19,1.21,1.89l-1.7-1.98
				c0.15-0.02,0.32,0.05,0.49,0.09c-0.5-0.6-1.08-1.15-1.7-1.68c-0.32-0.26-0.64-0.52-0.97-0.79c-0.53-0.36-1.03-1-1.54-1.52
				c-0.31-0.44-0.63-0.88-0.95-1.33c-0.25-0.37-0.51-0.75-0.77-1.13c-0.5-0.77-0.99-1.58-1.42-2.45c0,0.82-0.65,0.1-1.32-1.02
				c-0.66-1.13-1.36-2.65-1.89-3.14c0.25,0.31,0.73,0.96,0.74,0.72c0.02-0.6-0.46-1.3-1.13-2.05c-0.34-0.37-0.72-0.75-1.13-1.12
				l-0.61-0.55c-0.09-0.07-0.23-0.23-0.28-0.22c-0.04,0-0.09,0.02-0.11,0.02c-0.06-0.05,0.04,0.04-0.12-0.14
				c-0.12-0.15-0.23-0.3-0.33-0.45c-0.45-0.93,0.76-0.39-0.3-1.59c-0.47,0.41-5.08-3.32-5.99-5.38c0.66,0.69,0.92,0.51,1.52,0.77
				l-0.99-0.85l-0.23-0.2l-0.08-0.05l-0.15-0.09c-0.2-0.1-0.33-0.27-0.56-0.24c-0.21,0.05-0.38,0.2-0.56,0.27l-2.11,0.88
				c-1.66,0.67-3.33,1.34-5,2.01l-1.16,0.46c-0.22,0.05-0.25,0.3-0.26,0.48c-0.23,1.41-1.16,7.17-1.01,8.41
				c0.05,0.01,0.03,0.01,0.04,0.02l-0.12-0.02c-0.12-0.03-0.31-0.09-0.45-0.18c-0.08,0-0.13-0.16-0.19-0.33l-0.16-0.46
				c-0.29,0.79-0.38,0.77-0.46,0.97c0,0.23-0.01,0.45-0.01,0.64c0,0.24,0.02,0.46,0.04,0.66c0.04,0.4,0.11,0.73,0.21,1.02
				c0.19,0.57,0.48,0.96,0.77,1.35c0.59,0.78,1.23,1.59,1.27,3.92c0.04,3.55,0.02,7.14-0.02,10.74c0,0.18,0,0.56-0.01,0.56
				l-0.01,0.04l0.02,0.29l0.11,1.35l0.23,2.7l0.46,5.39l0.12,1.34l0.06,0.63c0,0.05-0.01,0.11,0,0.16
				c-0.09-0.05,0.43,1.07,0.77,1.83c0.75,1.63,1.5,3.25,2.24,4.86c0.76,1.6,1.54,3.19,2.34,4.76l1.21,2.33l0.15,0.28l0.05,0.07
				c0.03,0.05,0.06,0.1,0.11,0.14c0.11,0.12,0.13,0.08,0.36,0.25c0.49,0.21,0.43,0.04,0.28-0.23c-0.13-0.17-0.09-0.23-0.06-0.29
				c0.03-0.06,0.08-0.14,0.15-0.22c0.04,0.08-0.11,0.04,0.02,0.28c0.11,0.22,0.22,0.42,0.33,0.63c0.23,0.41,0.57,0.79,1.37,1.1
				l0.07-0.67c1.08,1.44,2.68,2.91,4.48,4.39c1.01,0.8,2.06,1.63,3.11,2.47c0.91,0.68,1.7,1.41,2.2,2.34
				c0.26,0.47,0.44,0.98,0.55,1.48c0.04,0.25,0.09,0.51,0.11,0.78l0.02,0.4l0,0.2l0,0.1l0,0.05l0,0.03l0,0.01v0.01
				c-1.15,0.14,2.51-0.3-2.46,0.3c0,0.03,0,0.05,0,0.08c0.66,0.34,1.31,0.67,1.96,1.01c0.13,0.08,0.44,0.19,0.43,0.25l-0.01,0.18
				l-0.02,0.36c-0.03,0.47-0.06,0.94-0.09,1.39c-0.07,0.91-0.15,1.78-0.27,2.59c-0.24,1.63-0.6,3.02-1.16,4.04
				c0.46,6.09-1.22,10.27-0.47,17.68c-0.59,2.29-0.7-2.74-1.02,0.39l0.34,6.84l-0.05-0.37c0.49,3.31-0.17,7.61-0.9,12.12
				c0.65,4.81,1.35,9.54-0.12,15.16l-0.46-0.84c-0.01,4.64-0.27,1.71-0.81,2c0,0.87,0.01,1.65,0.01,2.36
				c0.81,2.15,0.4,7.48,0.78,10.46c-0.32-0.57-0.23-1.77-0.42-2.79c-0.14,0.22-0.35,0.39-0.56,0.59c-0.03,0.76-0.07,1.59-0.11,2.53
				c-0.12-1.07-0.23-0.82-0.36-0.16c2.01,4.11,1.47,12.15,1.92,18.2c-0.77,0.45-1.58,2.94-2.62,5.34c-0.09,2.05-0.14,3.81-0.19,5.61
				c0.14,0.2,0.29,0.4,0.43,0.59c0.09-0.26,0.21-0.52,0.34-0.79c0,0.25,0.05,0.36,0.07,0.56c0.01-1.34-0.02-2.05-0.13-1.73
				c1.21-2.42,0.88,0.21,2.21,0.12c-0.14,2.02,0.14,6.21-0.89,6.63c-0.07,1.21-0.26,2-0.52,3.25c0.17,0.78,0.25,1.6,0.08,2.5
				l-0.12-0.42c-0.2,0.13-0.32,0.31-0.45,0.5c-0.77,3.91,1,9.57,1.8,12.87c-1.58-3.31-1.98,0.73-3.24,0.66
				c0.08,0.38,0.35-3.65,0.62-8.65c-0.15,0.35-0.39,0.62-0.84,0.69c-1.54,4.27,0.81,7.47-0.43,13.72c-0.09-0.3-0.24-0.8-0.5-0.96
				c-0.03,1.15-0.06,2.27-0.09,3.4c0.25,0.7,0.59,1.23,0.91,1.47c-0.36,0.14-0.7,0.64-1,1.31c-0.04,1.15-0.09,2.3-0.15,3.4
				l-0.46-0.66c0.02,1.3,0,2.77-0.06,4.21c0.72,1.48,1.08,1.65,0.82,4.99l-0.8-1.7c-0.29,1.31-0.3,2.16-0.21,2.82
				c0.05,0.01,0.11-0.02,0.16-0.16c0.08,0.57,0.11,0.97,0.12,1.27c0.29,0.84,0.59,1.57,0.13,3.4c0.38-1.28-0.3-1.56-0.62-0.86
				c0,0.05,0.01,0.09,0.01,0.14c0-0.04-0.01-0.09-0.02-0.13c-0.04,0.09-0.08,0.19-0.1,0.31c0.25,4.66,0.72,4.8,2.31,8.21l-1.35-0.68
				c0.63,3.98,1.89,11.5,0.03,11.49c2.94-1.1,1.02,8.67,0.76,12.1c-0.01-1.18-0.6-1.43-0.9-1.56c1.45,7.3-0.81,14.58-1.23,21.87
				l-0.41,0.21c-0.01,1.62,0.03,3.3,0.13,5.04c0.01,0.15,0.02,0.31,0.03,0.47c0.86,1.29,1.67,2.64,1.48,4.66l-0.83-1.56
				c-0.06,2.2-0.14,3.99-0.24,5.6c0.01,1.42-0.02,2.84-0.16,4.22l-0.15-0.29c-0.08,0.83-0.17,1.67-0.27,2.52
				c0.95,1.59,3.11,2.84,2.48,5.47l-0.66-1.05c-0.63,1.27-1,2.79-1.18,4.44c-0.04,0.41-0.08,0.83-0.1,1.26
				c-0.03,0.65-0.06,1.32-0.09,1.98c-0.02,1.37-0.05,2.79-0.33,4.09c-0.57,2.68-2.62,4.61-4.45,6.58c-0.43,0.48-0.86,0.94-1.27,1.4
				c-0.25,0.3-0.49,0.6-0.72,0.89c-0.46,0.58-0.9,1.11-1.29,1.6c0.46-0.99-0.86-1.7-2.08-0.69c-0.64,1.3,2.97,1.36,0.04,2.27
				c0.36-0.63-0.68-0.98-1.24-0.65c-0.37,0.96-0.77,1.88-1.19,2.77c-3.6,1.35-7.39,2.95-10.79,5.05c-3.41,2.08-6.51,4.56-9.05,7.29
				c-1.28,0.63-0.79-0.33-0.8-0.83c-4.24,4.1-7.96,8.71-11.74,12.47l-1.26-0.6c-1.92,1.76,0.15,2.58-3.12,4.01
				c-0.01,0.01-0.01,0-0.02,0.01c-0.33,0.59-0.71,1.14-1.18,1.63c0.04,0.27,0.08,0.56-0.18,0.7c-0.12-0.08-0.21-0.17-0.31-0.26
				c-0.35,0.29-0.76,0.54-1.22,0.75c0.63,0.28,1.3,0.42,1.79,0.48c0.01,0,0.03,0.01,0.03,0.01l0.01,0l0.01,0l0,0l0,0l0,0h0h0
				l-0.32,0.05c0.36,0.09,0.57,0.12,0.71,0.17c0.03,0.02,0.06,0.01,0.09,0.05c0.05,0.1,0.09,0.2,0.13,0.29
				c0.08,0.19,0.13,0.37,0.17,0.55c0.16,0.71,0.04,1.36-0.07,2.07c-0.2,1.38-0.37,3.18,1.91,5.94c1.25,0.51,0.92-0.83,2.16-0.35
				c1.93,3.91,3.31,3.58,6,6.74c-0.14,3.48-1.69-1.49-1.54,2.02c-0.35-0.47-0.73-0.9-1.06-1.38l-0.92-1.47
				c0.94,3.13-2.11-1.77-2.96-0.61c0.44,1.14,1.71,2.05,2.95,3.01c1.41,0.8,2.84,1.63,4.24,2.21c-0.38,0.48-1.13,0.03-1.71-0.37
				c-0.57-0.4-1.06-0.66-1.11,0.42c0.49,0.25,0.99,0.47,1.53,0.63c-0.57,0.01-0.97,0.36-1.62-0.32c-0.39,1.3,1.43,1.26,2.63,2.15
				c0.48-0.46,0.95-1.27,1.13-2.27c-0.04,0.14-0.04,0.33,0.04,0.58c0.83,0.11,1.75,0.26,2.59,0.59c0.83,0.35,1.7,0.71,2.57,1.03
				c0.85,0.36,1.69,0.7,2.53,0.82c0.83,0.14,1.58,0.24,2.27-0.03c-0.5,0.31-0.22,0.49-0.19,0.83c0.82,0.22,1.78,0,2.77-0.34
				c1.01-0.43,2.04-0.91,3.1-1.12c1.03,1.06-1.06,3.18,2.58,2.66c0.62-1.29-0.76-3.29,1.89-3.55c0,0-0.56,0.32-1,0.73
				c-0.43,0.41-0.74,0.91-0.07,1.29c2.77-1.15,0.86,0.41,3.65,1.39c1.22-2,3-0.06,2.62-3.06c1.36,1.7,0.93,1.11,3.08,1.82
				c-0.65-0.64,0.04-1.36,0.71-2.13c0.66-0.84,1.28-1.8,0.79-2.7c0.8,0.9,0.49,1.9,0.28,2.83c-0.2,0.93-0.31,1.8,1.31,2.34
				c0.51-1.14,1.22-2.05,2.03-3.31c0.74-1.2,1.24-2.41,0.76-3.65c1.59-0.25,2.64,0.26,4.83-0.68c-0.4,0.04-0.56,0.73-0.65,1.08
				c2.82-3.72,9.1-5.16,9.59-9.37c1.16,4.04,8.04-3.99,7.03,1.03c1.48-0.97,3.08-3.91,3.24-4.9c-0.05-0.12-0.13-0.19-0.18-0.33
				c0.19-0.09,0.22,0.06,0.18,0.33c1.37,3.02,4.22-1.38,6.82-0.54c-0.01-2.15,3.06-3.1,4.24-5c-0.56,0.77-0.69,1.51,0,2.18
				c1.25-2.26,1.39-0.83,3.77-0.25c2.09-2.31-1.69-2.06-0.87-4.32c2.59-0.51,1.35,1.74,2.4,2.78l1.72-4.85
				c0.83-0.05,1.62,0.28,2.32,0.96c0.68-1.5,1.03-3.35,3.42-2.74l-2.81,1.61l1.91,0.98l2.36-3.77c2.73-0.14,4.27,0.62,5.26,1.81
				c0-0.01,0-0.01,0-0.02l1.11-1.47c0.24,0.86,0.45,1.74,0.64,2.64c-0.29,0.3-0.59,0.34-0.87,0.26c0.5,1.04,0.84,2.21,1.23,3.35
				l0.3-0.16c8.38-4.39,13.49-12.33,14.69-20.89C1117.14,730.77,1116.33,730.27,1115.46,729.82z M1110.96,723.21
				c0.17-0.67,0.42-1.37,0.4-1.87c0.73,0.27,0.58,1.21,0.26,2.05c-0.35,0.86-0.72,1.61-0.08,1.85l0.81,0.07
				c-0.37,0.02-0.64-0.01-0.81-0.07l-0.65-0.06C1110.54,724.59,1110.72,723.91,1110.96,723.21z M1082.83,573.97l0.41,2.6l-1.44-0.85
				L1082.83,573.97z M1011.93,774.49c0.08-0.47,0.11-0.96,0-1.51C1014.87,774.95,1012.28,773.54,1011.93,774.49z M1108.29,738.26
				l0.3-0.37c-0.01,0.2,0,0.41-0.03,0.6c0.16,0.19,0.06,0.37-0.08,0.57l-0.18,1.25c-0.37-0.58-0.05-0.93,0.18-1.25l0.08-0.57
				C1108.5,738.41,1108.42,738.33,1108.29,738.26z M1110.23,746.41c-0.25-0.41-0.45-1.21-1.18-1.25c-0.2,1.29-0.71,2.42-1.56,3.01
				c-0.87,0.57-1.94,0.78-3.17,0.38c-0.36-1.7,1.45-1.58,1.4-2.35c0.44,0.89,1.91,1.19,2.62,0.05c-0.94-3.13-0.06-2.72-1.13-5.27
				C1109.63,741.78,1110.4,744.31,1110.23,746.41z"/>
			<path class="st0" d="M891.29,470.58c0.01,0.33,0.04,0.65,0.1,0.93c0.07-0.32,0.16-0.62,0.25-0.93
				C891.55,470.53,891.43,470.53,891.29,470.58z"/>
			<path class="st0" d="M828.55,397.03c-0.01,0.19-0.01,0.34,0.01,0.41c0.03-0.16,0.04-0.28,0.06-0.39L828.55,397.03z"/>
			<path class="st0" d="M1057.62,395.25c0.11,0.15,0.21,0.26,0.31,0.4l0.03,0.02c0.04-0.01-0.01-0.24-0.01-0.34l-0.06-0.73
				C1057.48,394.28,1057.22,394.25,1057.62,395.25z"/>
			<path class="st0" d="M857.46,481.14c-0.01-0.1,0.06-0.19,0.09-0.28l-0.15,0.15L857.46,481.14z"/>
			<path class="st0" d="M839.09,558.66c-0.05,0.04-0.11,0.09-0.15,0.13c-0.26,0.69-0.82,1.67-1.38,2.5c0.3,0.13,0.59,0.26,0.88,0.38
				l2.58-2.39c0.11-0.11,0.2-0.21,0.31-0.32C841.19,557.57,839.33,559.37,839.09,558.66z"/>
			<path class="st0" d="M1002.52,749.01c-0.36,0.22-0.66,0.42-0.93,0.62c-0.26,0.59-0.53,1.17-0.82,1.73
				C1001.26,750.81,1002.32,749.71,1002.52,749.01z"/>
			<path class="st0" d="M856.76,480.58c-0.16,0.17-0.32,0.34-0.48,0.5c-0.04,0.26-0.03,0.58,0.08,0.89c0.28-0.25,0.8-0.7,1.04-0.95
				c-0.07-0.14-0.14-0.29-0.21-0.44C857,480.54,856.88,480.56,856.76,480.58z"/>
			<path class="st0" d="M1045.85,580.68c0,0,0.01,0,0.03,0c0.01-1.05,0.01-1.65,0.01-2.09
				C1045.88,579.07,1045.87,579.81,1045.85,580.68z"/>
			<path class="st0" d="M1045.42,589.16c0.47-1.24,0.85-3.23,1.14-2.75c0.07-0.85-0.39-1.2-0.88-0.93
				C1045.62,586.85,1045.54,588.13,1045.42,589.16z"/>
			<path class="st0" d="M1016.54,735.52l-0.01-0.02c-0.63,0.61-0.98,0.97-1.24,1.22C1015.57,736.45,1016.02,736.03,1016.54,735.52z"
				/>
			<path class="st0" d="M1019.5,732.82c0.86-0.74,1.69-1.42,2.39-1.94c-1.04,0.43-2.45,1.36-2.31,0.92
				C1019.03,732.26,1019.07,732.71,1019.5,732.82z"/>
			<path class="st0" d="M1116.15,727.92c0.62,0.88,1.3,1.86,1.88,2.88c0.14-1.16,0.19-2.33,0.19-3.5
				C1117.52,727.14,1116.64,727.52,1116.15,727.92z"/>
			<path class="st0" d="M829.37,395.06c-0.03-0.31-0.08-0.8-0.12-1.25l0,1.41C829.28,394.37,829.22,393.96,829.37,395.06z"/>
			<path class="st0" d="M849.41,426.94c0,0,0.01,0.01,0.02,0.02c0.06-0.17,0.09-0.27,0.12-0.34
				C849.52,426.69,849.47,426.8,849.41,426.94z"/>
			<path class="st0" d="M848.59,428.07c0.49,0.11,0.94,0.03,1.18,0.3c0.11-0.09-0.3-0.46-0.76-0.74
				C848.88,427.81,848.75,427.97,848.59,428.07z"/>
			<path class="st0" d="M834.59,449.8c-0.16,0.23-0.32,0.44-0.47,0.64c0.01,0.22,0.08,0.44,0.22,0.54L834.59,449.8z"/>
			<path class="st0" d="M851.11,423.88l0.01,0.01c0.01-0.01,0-0.02,0-0.03L851.11,423.88z"/>
			<path class="st0" d="M852.77,434.57c-0.11,0.18-0.23,0.37-0.34,0.55c0.5-0.09,1-0.15,1.49-0.22
				C853.5,434.69,853.09,434.59,852.77,434.57z"/>
			<path class="st0" d="M811.26,495.1c-0.2,0.47-0.08,0.66,0.19,0.72L811.26,495.1z"/>
			<path class="st0" d="M851.04,424l-0.26,0.46C851.15,424.33,851.17,424.17,851.04,424z"/>
			<path class="st0" d="M828.62,397.28c0.01-0.02,0.03-0.1,0.05-0.2l-0.03-0.01L828.62,397.28z"/>
			<path class="st0" d="M836.35,509.88c0.14,0.02,0.36,0.06,0.71,0.13l0.08-0.11c-0.29,0.01-0.56,0-0.78-0.04L836.35,509.88z"/>
			<path class="st0" d="M837.31,509.67L837.31,509.67c0.19-0.26,0.37-0.59,0.09-0.92c-0.13,0.14-0.25,0.27-0.36,0.38
				c0.06,0.16,0.12,0.32,0.19,0.51L837.31,509.67z"/>
			<path class="st0" d="M816.52,451.22c0.01,0,0.01-0.01,0.02-0.01c0-0.01,0-0.02,0-0.02C816.53,451.2,816.52,451.21,816.52,451.22z
				"/>
		</g>
		<g>
			<path class="st0" d="M960,885c-190.23,0-345-154.77-345-345c0-190.23,154.77-345,345-345s345,154.77,345,345
				C1305,730.23,1150.23,885,960,885z M960,221.49c-175.62,0-318.51,142.88-318.51,318.5S784.37,858.51,960,858.51
				S1278.51,715.62,1278.51,540S1135.62,221.49,960,221.49z"/>
		</g>
	</g>
</g>
</svg>
